<?xml version="1.0" encoding="UTF-8"?>
<svg version="1.1" xmlns="http://www.w3.org/2000/svg" width="1920" height="1080">
<path d="M0 0 C7.63417664 9.33968418 9.02665934 17.83311615 9.0859375 29.49609375 C9.1065625 30.49511719 9.1271875 31.49414062 9.1484375 32.5234375 C9.19846835 42.0918382 6.8214894 49.16606136 1.8359375 57.24609375 C1.1759375 57.24609375 0.5159375 57.24609375 -0.1640625 57.24609375 C-0.41800781 57.84292969 -0.67195312 58.43976563 -0.93359375 59.0546875 C-4.21814708 64.90432058 -11.11296624 67.97693265 -17.1640625 70.24609375 C-16.63039063 70.46523438 -16.09671875 70.684375 -15.546875 70.91015625 C-1.72714415 76.79191021 7.05192504 83.37490941 13.13476562 97.41503906 C18.49753747 111.41949199 15.40013889 126.72683535 9.8984375 140.16015625 C8.74409993 142.42639251 7.50450824 144.3254993 5.8359375 146.24609375 C5.1759375 146.24609375 4.5159375 146.24609375 3.8359375 146.24609375 C3.57296875 146.83777344 3.31 147.42945313 3.0390625 148.0390625 C-1.48922304 156.34582007 -11.64931703 161.00216929 -20.1640625 164.24609375 C-33.31217809 168.05030037 -46.41753812 168.39881341 -59.9765625 168.37890625 C-61.59798192 168.37958075 -63.21940124 168.38055199 -64.84082031 168.38180542 C-68.21957371 168.38327216 -71.5983005 168.38115867 -74.97705078 168.37646484 C-79.31611717 168.37073143 -83.65512219 168.37407566 -87.9941864 168.38003731 C-91.33291086 168.38363949 -94.67162058 168.38250656 -98.01034546 168.37990952 C-99.61160286 168.37924118 -101.21286158 168.38006542 -102.81411743 168.38238907 C-105.04017733 168.38491389 -107.26613525 168.38107916 -109.4921875 168.37548828 C-110.7596582 168.37469269 -112.02712891 168.37389709 -113.33300781 168.37307739 C-116.1640625 168.24609375 -116.1640625 168.24609375 -117.1640625 167.24609375 C-117.26170221 164.88061856 -117.29403538 162.5443844 -117.28431702 160.17845154 C-117.28517144 159.43030703 -117.28602587 158.68216252 -117.28690618 157.91134697 C-117.28856323 155.38545428 -117.28303598 152.85962689 -117.27758789 150.33374023 C-117.27730604 148.53066001 -117.27746371 146.72757967 -117.2780304 144.92449951 C-117.27831846 140.01354836 -117.27242034 135.10262141 -117.26545644 130.1916759 C-117.25922434 125.06537163 -117.25861922 119.93906687 -117.25743103 114.8127594 C-117.25431729 105.09818749 -117.24610333 95.38362678 -117.23608154 85.66905981 C-117.22492173 74.61241658 -117.21941029 63.55577282 -117.21438611 52.49912536 C-117.20392075 29.74810861 -117.18632048 6.9971018 -117.1640625 -15.75390625 C-109.03476808 -15.93308037 -100.90534569 -16.09883164 -92.7754631 -16.24868202 C-88.99809566 -16.31870221 -85.22091784 -16.39289042 -81.44384766 -16.47753906 C-18.19647559 -17.88274325 -18.19647559 -17.88274325 0 0 Z M-58.453125 9.46484375 C-59.17846436 9.48450195 -59.90380371 9.50416016 -60.65112305 9.52441406 C-63.36377756 9.59801212 -66.07641926 9.67208142 -68.7890625 9.74609375 C-74.8528125 9.91109375 -80.9165625 10.07609375 -87.1640625 10.24609375 C-87.1640625 26.41609375 -87.1640625 42.58609375 -87.1640625 59.24609375 C-77.91375 59.33890625 -77.91375 59.33890625 -68.4765625 59.43359375 C-66.55884033 59.46090576 -64.64111816 59.48821777 -62.6652832 59.51635742 C-43.57845418 59.82614131 -43.57845418 59.82614131 -27.1640625 51.24609375 C-22.13143634 43.72658508 -21.41738607 36.13259489 -22.1640625 27.24609375 C-23.80041859 21.36456244 -27.06964704 17.61033037 -32.1640625 14.24609375 C-35.11177085 13.02087237 -38.0833924 12.07507407 -41.1640625 11.24609375 C-41.85242188 11.0346875 -42.54078125 10.82328125 -43.25 10.60546875 C-45.3741297 10.04619485 -45.3741297 10.04619485 -48.1640625 11.24609375 C-48.1640625 10.58609375 -48.1640625 9.92609375 -48.1640625 9.24609375 C-51.59482782 9.24609375 -55.02382974 9.37095764 -58.453125 9.46484375 Z M-87.1640625 84.24609375 C-87.1640625 103.71609375 -87.1640625 123.18609375 -87.1640625 143.24609375 C-80.9146875 143.26671875 -74.6653125 143.28734375 -68.2265625 143.30859375 C-66.25179932 143.31769775 -64.27703613 143.32680176 -62.24243164 143.33618164 C-60.68636137 143.3391008 -59.13029034 143.34164936 -57.57421875 143.34375 C-56.75884644 143.34886597 -55.94347412 143.35398193 -55.10339355 143.35925293 C-53.12325727 143.35956315 -51.14321596 143.30847471 -49.1640625 143.24609375 C-48.8340625 142.91609375 -48.5040625 142.58609375 -48.1640625 142.24609375 C-45.83072917 142.24609375 -43.49739583 142.24609375 -41.1640625 142.24609375 C-38.85369335 141.8175438 -38.85369335 141.8175438 -37.1640625 141.24609375 C-37.1640625 140.58609375 -37.1640625 139.92609375 -37.1640625 139.24609375 C-36.1740625 139.57609375 -35.1840625 139.90609375 -34.1640625 140.24609375 C-26.34438145 136.95790151 -21.50526832 130.86995013 -18.1640625 123.24609375 C-16.60373263 114.5019633 -15.98562854 104.27139841 -20.25 96.1875 C-25.9566998 88.51809131 -35.40644418 86.03248656 -44.42724609 84.62329102 C-52.39824024 83.81869243 -60.41207649 84.04547706 -68.4140625 84.12109375 C-77.6953125 84.18296875 -77.6953125 84.18296875 -87.1640625 84.24609375 Z " fill="#03519A" transform="translate(707.1640625,366.75390625)"/>
<path d="M0 0 C1 2 1 2 0.21484375 4.65234375 C-2.68271781 12.1044822 -5.97151024 19.09203989 -10 26 C-12.48235437 25.21735638 -14.96056096 24.42444723 -17.4375 23.625 C-18.14455078 23.40328125 -18.85160156 23.1815625 -19.58007812 22.953125 C-21.4062189 22.35897394 -23.20577032 21.68450381 -25 21 C-25.495 20.01 -25.495 20.01 -26 19 C-27.485 19.495 -27.485 19.495 -29 20 C-31.00461299 19.34733531 -33.00379834 18.67795528 -35 18 C-41.77303735 16.89938143 -48.46032481 16.81660556 -55.3125 16.8125 C-56.90868164 16.79413086 -56.90868164 16.79413086 -58.53710938 16.77539062 C-75.21086526 16.74487124 -88.69892376 20.95829818 -100.87890625 32.73828125 C-105.86201456 38.05176138 -109.43932798 43.17154127 -112 50 C-112.66 50 -113.32 50 -114 50 C-114.13277344 51.02222656 -114.26554687 52.04445313 -114.40234375 53.09765625 C-114.94244856 56.62422298 -115.71826494 59.97491272 -116.5625 63.4375 C-121.20617475 84.95560868 -117.88049375 107.08826793 -109 127 C-108.02294416 128.35023689 -107.0306506 129.69021486 -106 131 C-106 131.66 -106 132.32 -106 133 C-105.13375 133.3403125 -105.13375 133.3403125 -104.25 133.6875 C-102 135 -102 135 -100.1875 137.375 C-96.03595933 142.3568488 -89.90397026 144.61258418 -84.05078125 147.12109375 C-82.53691149 147.76989508 -81.04317338 148.4661463 -79.5625 149.1875 C-76.11360417 150.28105234 -72.70821992 150.49304323 -69.109375 150.75390625 C-67 151 -67 151 -66 152 C-64.66956375 152.0983721 -63.33406656 152.13078592 -62 152.1328125 C-61.195625 152.13410156 -60.39125 152.13539063 -59.5625 152.13671875 C-58.716875 152.13285156 -57.87125 152.12898437 -57 152.125 C-56.154375 152.12886719 -55.30875 152.13273438 -54.4375 152.13671875 C-53.633125 152.13542969 -52.82875 152.13414062 -52 152.1328125 C-50.88625 152.13112061 -50.88625 152.13112061 -49.75 152.12939453 C-47.97174189 152.18942216 -47.97174189 152.18942216 -47 151 C-45.948125 151.020625 -44.89625 151.04125 -43.8125 151.0625 C-40.0183521 151.00030085 -37.52437934 150.30248802 -34 149 C-32.35 148.67 -30.7 148.34 -29 148 C-28.67 132.82 -28.34 117.64 -28 102 C-46.81 101.505 -46.81 101.505 -66 101 C-66.020625 96.895625 -66.04125 92.79125 -66.0625 88.5625 C-66.071604 87.26642822 -66.08070801 85.97035645 -66.09008789 84.63500977 C-66.09258545 83.62237061 -66.09508301 82.60973145 -66.09765625 81.56640625 C-66.10289307 80.52427979 -66.10812988 79.48215332 -66.11352539 78.40844727 C-66 76 -66 76 -65 75 C-62.95516624 74.90060508 -60.90686668 74.87200448 -58.85961914 74.87060547 C-57.54478043 74.86745331 -56.22994171 74.86430115 -54.8752594 74.86105347 C-53.42855801 74.86284343 -51.98185693 74.86489443 -50.53515625 74.8671875 C-49.06164026 74.86651436 -47.58812437 74.86554425 -46.11460876 74.86428833 C-43.021789 74.86281137 -39.92899806 74.86496555 -36.83618164 74.86962891 C-32.86691265 74.87532122 -28.89771135 74.87205035 -24.92844486 74.86605644 C-21.88390084 74.86244653 -18.83937292 74.86359149 -15.79482841 74.86618423 C-14.33116078 74.86685257 -12.8674917 74.86602833 -11.40382576 74.86370468 C-9.35914258 74.86117172 -7.31445429 74.86571533 -5.26977539 74.87060547 C-4.10474991 74.87140106 -2.93972443 74.87219666 -1.73939514 74.87301636 C1 75 1 75 3 76 C3 106.36 3 136.72 3 168 C-3.61446982 170.64578793 -9.29118246 172.77467523 -16.125 174.125 C-16.85203125 174.28097656 -17.5790625 174.43695312 -18.328125 174.59765625 C-31.90587763 177.3822462 -45.41781674 178.41594774 -59.25 178.375 C-60.01180573 178.3737915 -60.77361145 178.37258301 -61.5585022 178.37133789 C-84.02232218 178.27497078 -105.57571016 174.49756548 -123 159 C-123 158.34 -123 157.68 -123 157 C-123.639375 156.731875 -124.27875 156.46375 -124.9375 156.1875 C-127 155 -127 155 -128 152 C-128.66 152 -129.32 152 -130 152 C-130.495 150.02 -130.495 150.02 -131 148 C-131.66 148 -132.32 148 -133 148 C-148.21849935 129.40853509 -151.20731841 104.3052539 -151.125 81.1875 C-151.12886719 80.08212891 -151.13273437 78.97675781 -151.13671875 77.83789062 C-151.13542969 76.77119141 -151.13414063 75.70449219 -151.1328125 74.60546875 C-151.13168457 73.64793701 -151.13055664 72.69040527 -151.12939453 71.70385742 C-151.00149117 69.03115972 -150.58719068 66.60650738 -150 64 C-149.80921875 62.9790625 -149.6184375 61.958125 -149.421875 60.90625 C-144.85716734 37.76424372 -133.4740883 17.56477754 -113.78564453 4.15380859 C-105.86853291 -0.96189684 -97.23614756 -5.88161753 -88 -8 C-86.84757812 -8.27585937 -85.69515625 -8.55171875 -84.5078125 -8.8359375 C-58.16079843 -14.46286831 -24.13523331 -13.58510139 0 0 Z " fill="#034F9B" transform="translate(1551,359)"/>
<path d="M0 0 C9.35144495 4.07160258 13.41064468 15.14445894 17.20703125 23.9609375 C22.06293423 36.59914856 19.92313486 49.1424917 17.20703125 61.9609375 C16.55046869 65.14877585 15.90010696 68.33777781 15.25439453 71.52783203 C14.81774109 73.67621769 14.37381779 75.82314324 13.92138672 77.96826172 C9.03348856 101.67095978 9.46114007 124.8295916 22.20703125 145.9609375 C22.95210938 146.79753906 23.6971875 147.63414062 24.46484375 148.49609375 C26.20703125 150.9609375 26.20703125 150.9609375 26.23046875 153.72265625 C26.01648438 154.68816406 25.8025 155.65367187 25.58203125 156.6484375 C25.38351563 157.60105469 25.185 158.55367187 24.98046875 159.53515625 C24.55383187 161.42485596 24.12420348 163.31391774 23.68164062 165.19995117 C22.29448366 171.49249789 21.8945767 177.46449326 21.95703125 183.8984375 C21.96174438 185.33932739 21.96174438 185.33932739 21.96655273 186.80932617 C22.03575373 192.76414722 22.4542801 198.42184942 23.8671875 204.23046875 C23.97933594 204.80152344 24.09148437 205.37257813 24.20703125 205.9609375 C23.87703125 206.2909375 23.54703125 206.6209375 23.20703125 206.9609375 C16.98810949 206.63469898 12.71444921 205.10813456 7.39453125 201.9609375 C6.35196167 201.35427246 6.35196167 201.35427246 5.28833008 200.73535156 C-8.34140826 192.61389879 -20.30123311 181.09628776 -27.79296875 166.9609375 C-28.09299805 166.39503906 -28.39302734 165.82914063 -28.70214844 165.24609375 C-33.83846221 155.47480975 -38.24518556 145.84941568 -41.08203125 135.14453125 C-44.66913185 121.71649528 -48.36366348 108.77675423 -58.79296875 98.9609375 C-59.87578125 97.7234375 -59.87578125 97.7234375 -60.98046875 96.4609375 C-67.44784312 90.71216029 -75.54139315 88.12039239 -83.79296875 85.9609375 C-75.20771274 53.33696465 -37.52142643 22.69456477 -10.79296875 4.7734375 C-10.07463867 4.27900146 -9.35630859 3.78456543 -8.61621094 3.27514648 C-3.53747605 -0.04947519 -3.53747605 -0.04947519 0 0 Z " fill="#03519A" transform="translate(143.79296875,291.0390625)"/>
<path d="M0 0 C11.74490235 -2.01629225 24.11223609 1.57508485 34 7.9375 C35.35093688 8.93492069 36.68584742 9.95459028 38 11 C38.59941406 11.44988281 39.19882813 11.89976562 39.81640625 12.36328125 C48.47044486 19.23617545 60.07065988 32.75004496 62 44 C62.66 44 63.32 44 64 44 C64.474375 44.928125 64.94875 45.85625 65.4375 46.8125 C68.08539266 51.50387503 71.5883706 55.46198584 75.07421875 59.546875 C77 62 77 62 78 65 C79.485 65.495 79.485 65.495 81 66 C81.33 66.99 81.66 67.98 82 69 C83.30946028 69.71241561 84.64823454 70.37154764 86 71 C87.56508839 72.1564561 89.10617769 73.34591825 90.625 74.5625 C93.66066003 77.0196581 93.66066003 77.0196581 97 79 C97 79.66 97 80.32 97 81 C103.29304541 83.14328358 109.62267685 85.12275039 116 87 C116 87.66 116 88.32 116 89 C117.32 88.67 118.64 88.34 120 88 C120 88.66 120 89.32 120 90 C120.7425 89.7525 121.485 89.505 122.25 89.25 C125 89 125 89 126.98828125 90.6484375 C129.09817505 93.11475996 130.47514765 95.482702 131.9375 98.375 C134.24933791 102.78102187 136.74604005 106.26751652 140 110 C140 110.66 140 111.32 140 112 C140.58523437 112.25652344 141.17046875 112.51304687 141.7734375 112.77734375 C144.19234608 114.10562162 145.73198872 115.56524801 147.625 117.5625 C150.04521959 120.14015389 150.04521959 120.14015389 153 122 C153 122.66 153 123.32 153 124 C153.721875 124.226875 154.44375 124.45375 155.1875 124.6875 C158.53209313 126.24831013 160.51603959 128.3031287 163 131 C158.71945585 134.09333622 154.61304554 136.08961631 149.5625 137.6875 C148.93279297 137.89955078 148.30308594 138.11160156 147.65429688 138.33007812 C120.78964219 147.08248875 92.82566822 138.2237659 68.7644043 125.99047852 C66.22188435 124.68256131 63.68657868 123.36156779 61.15673828 122.02929688 C44.6340134 113.34204503 31.40030965 109.19797049 13.15234375 114.84375 C9.43113065 116.20865592 6.33465999 117.87794364 3 120 C2.34 120 1.68 120 1 120 C-2.14232219 111.01089799 -4.55380681 102.06465873 -6.25 92.6875 C-6.49411621 91.34727783 -6.49411621 91.34727783 -6.74316406 89.97998047 C-11.03718541 65.18679353 -14.77167674 22.15751511 0 0 Z " fill="#03519B" transform="translate(44,417)"/>
<path d="M0 0 C3 1 3 1 4.5 3.88671875 C5.01590363 5.14725343 5.51485229 6.41481153 6 7.6875 C6.39082764 8.70191162 6.39082764 8.70191162 6.78955078 9.73681641 C15.47607733 33.047564 13.05677795 58.26992341 3.16845703 80.90332031 C0.93113132 85.6797448 -1.54248806 90.33438933 -4 95 C-17.21226054 119.77938641 -17.21226054 119.77938641 -16 147.05859375 C-14.75203469 150.72936672 -13.05303756 153.88943608 -10.98828125 157.16015625 C-10 159 -10 159 -10 162 C-15.2413829 164.43623375 -20.29133289 165.9338255 -25.9375 167.125 C-26.69740234 167.29386719 -27.45730469 167.46273437 -28.24023438 167.63671875 C-33.14706072 168.70105171 -38.01137972 169.43565235 -43 170 C-44.19625 170.165 -45.3925 170.33 -46.625 170.5 C-57.39209559 171.82485746 -68.16126901 172.23465294 -79 172 C-79.68094727 171.99274902 -80.36189453 171.98549805 -81.06347656 171.97802734 C-96.75427788 171.76905279 -114.39665577 170.04191964 -129 164 C-132.04043616 157.91912768 -130.12322382 149.51860987 -128.3125 143.3125 C-126.42860273 137.79865433 -124.23239036 132.84858555 -121 128 C-120.48179687 127.21238281 -119.96359375 126.42476562 -119.4296875 125.61328125 C-111.24653383 114.33044815 -99.00859449 107.40501727 -87.08984375 100.65087891 C-81.54888777 97.46354659 -76.80560367 93.85441056 -72.00390625 89.6171875 C-70 88 -70 88 -68 88 C-67.505 86.515 -67.505 86.515 -67 85 C-65.34997172 83.64613064 -63.6825613 82.31321858 -62 81 C-61.01 79.515 -61.01 79.515 -60 78 C-59.34 78 -58.68 78 -58 78 C-57.72671875 77.40960937 -57.4534375 76.81921875 -57.171875 76.2109375 C-56.03807816 74.0718408 -54.80348807 72.4708111 -53.25 70.625 C-46.912958 62.32022124 -41.2656005 49.59420691 -40.89453125 38.984375 C-39.88840874 35.62770426 -39.54482111 35.38262383 -36.65625 33.734375 C-35.28152013 33.05098327 -33.89541417 32.39009824 -32.5 31.75 C-27.46883533 29.74920332 -27.46883533 29.74920332 -24 26 C-23.01 26 -22.02 26 -21 26 C-21 25.34 -21 24.68 -21 24 C-19.53125 22.58984375 -19.53125 22.58984375 -17.5 20.9375 C-10.34783546 14.83600742 -4.72238659 8.11660195 0 0 Z " fill="#03519A" transform="translate(319,514)"/>
<path d="M0 0 C1.05380859 0.38671875 1.05380859 0.38671875 2.12890625 0.78125 C14.15767342 4.79083906 26.62892025 5.56718404 38.87890625 2.54296875 C41.78319335 1.86227646 44.16696958 1.62978733 47.12890625 1.78125 C47.89282825 4.03346519 48.26852863 5.34056868 47.53979492 7.640625 C47.04829956 8.57648437 47.04829956 8.57648437 46.546875 9.53125 C46.01416992 10.56765625 46.01416992 10.56765625 45.47070312 11.625 C44.89932617 12.69234375 44.89932617 12.69234375 44.31640625 13.78125 C43.94708984 14.4928125 43.57777344 15.204375 43.19726562 15.9375 C42.50570426 17.26847627 41.80922842 18.59691928 41.10620117 19.921875 C40.08647277 21.86198279 39.10320506 23.81799311 38.12890625 25.78125 C37.46890625 25.78125 36.80890625 25.78125 36.12890625 25.78125 C35.86078125 26.36519531 35.59265625 26.94914063 35.31640625 27.55078125 C22.73551165 51.18134315 -7.87031528 60.95306393 -31.49316406 68.63378906 C-45.61816915 72.90374594 -45.61816915 72.90374594 -57.87109375 80.78125 C-58.62261719 81.42964844 -59.37414062 82.07804688 -60.1484375 82.74609375 C-67.66185156 90.05948348 -70.58094332 99.06948763 -73.87109375 108.78125 C-87.03594628 105.80306936 -102.16148463 93.93234178 -111.87109375 84.78125 C-111.87109375 84.12125 -111.87109375 83.46125 -111.87109375 82.78125 C-112.55558594 82.5853125 -113.24007812 82.389375 -113.9453125 82.1875 C-117.96237666 80.25673485 -120.60027464 77.45050331 -123.68359375 74.28125 C-124.28107422 73.68699219 -124.87855469 73.09273437 -125.49414062 72.48046875 C-129.87109375 68.04849107 -129.87109375 68.04849107 -129.87109375 65.78125 C-130.44730469 65.54792969 -131.02351563 65.31460938 -131.6171875 65.07421875 C-136.44440391 62.30505301 -139.52178952 57.14032587 -142.87109375 52.78125 C-143.33032227 52.18489746 -143.78955078 51.58854492 -144.26269531 50.97412109 C-157.91622726 33.1162719 -157.91622726 33.1162719 -159.87109375 26.78125 C-158.26885546 20.35287579 -152.98783245 16.70863696 -147.578125 13.36328125 C-126.62779988 2.2558495 -106.04338925 5.21354024 -83.87109375 10.78125 C-83.87109375 11.44125 -83.87109375 12.10125 -83.87109375 12.78125 C-83.14921875 12.595625 -82.42734375 12.41 -81.68359375 12.21875 C-78.66432454 11.7490859 -76.8298565 12.11399193 -73.87109375 12.78125 C-63.23434333 15.15073749 -52.46599466 16.11485117 -41.8203125 13.28125 C-39.87109375 12.78125 -39.87109375 12.78125 -36.24609375 12.34375 C-32.40946471 11.70431183 -29.40533223 10.39335878 -25.87109375 8.78125 C-24.60126975 8.36151738 -23.3303904 7.94496698 -22.05859375 7.53125 C-18.45918244 6.26209341 -15.96726176 4.34475446 -12.99609375 1.96875 C-8.26737306 -1.51749385 -5.55125944 -1.6395373 0 0 Z " fill="#03519A" transform="translate(222.87109375,552.21875)"/>
<path d="M0 0 C1.26650391 -0.01224609 2.53300781 -0.02449219 3.83789062 -0.03710938 C5.04509766 -0.03904297 6.25230469 -0.04097656 7.49609375 -0.04296875 C9.1675647 -0.04913208 9.1675647 -0.04913208 10.87280273 -0.05541992 C13.5625 0.1875 13.5625 0.1875 15.5625 2.1875 C15.80300903 5.04751587 15.80300903 5.04751587 15.78955078 8.74853516 C15.78984283 9.42182358 15.79013489 10.095112 15.79043579 10.7888031 C15.78904047 13.01818654 15.77347016 15.24723732 15.7578125 17.4765625 C15.75408308 19.02069923 15.75123577 20.56483833 15.74923706 22.10897827 C15.74159499 26.17625443 15.72194168 30.24338811 15.6998291 34.31060791 C15.67938296 38.4596565 15.67023799 42.60872807 15.66015625 46.7578125 C15.63869625 54.90110711 15.60455349 63.04428584 15.5625 71.1875 C16.2227417 70.57116699 16.8829834 69.95483398 17.56323242 69.31982422 C18.8835144 68.10576904 18.8835144 68.10576904 20.23046875 66.8671875 C21.09696045 66.06522949 21.96345215 65.26327148 22.85620117 64.43701172 C33.59977453 55.5068101 48.99869885 53.06994076 62.5625 54.1875 C76.42038067 55.78648623 87.89327261 59.60740336 97.5625 70.1875 C97.5625 70.8475 97.5625 71.5075 97.5625 72.1875 C98.2225 72.1875 98.8825 72.1875 99.5625 72.1875 C100.5399428 74.40979921 101.49370176 76.63841765 102.4375 78.875 C102.70691406 79.48150391 102.97632813 80.08800781 103.25390625 80.71289062 C108.70770362 93.81530627 107.85963776 108.26337746 107.828125 122.16796875 C107.82947442 124.27452133 107.83141726 126.3810736 107.83392334 128.48762512 C107.83685443 132.87402348 107.83263748 137.26033977 107.82324219 141.64672852 C107.81177103 147.27702087 107.81846791 152.90712413 107.83038712 158.53740978 C107.83759434 162.87383974 107.83532438 167.21022437 107.83013153 171.54665565 C107.82879588 173.62436254 107.8304398 175.70207351 107.83509064 177.77977562 C107.84014554 180.6686444 107.83246386 183.55719964 107.82128906 186.44604492 C107.82533752 187.30675095 107.82938599 188.16745697 107.83355713 189.054245 C107.79104443 194.95895557 107.79104443 194.95895557 105.5625 197.1875 C102.88867188 197.44628906 102.88867188 197.44628906 99.53125 197.453125 C98.32855469 197.45570313 97.12585938 197.45828125 95.88671875 197.4609375 C94.62472656 197.45320312 93.36273437 197.44546875 92.0625 197.4375 C90.80050781 197.44523438 89.53851562 197.45296875 88.23828125 197.4609375 C87.03558594 197.45835937 85.83289063 197.45578125 84.59375 197.453125 C83.48580078 197.45086914 82.37785156 197.44861328 81.23632812 197.44628906 C78.5625 197.1875 78.5625 197.1875 76.5625 195.1875 C76.36545915 192.20237775 76.29302533 189.30874919 76.30712891 186.32250977 C76.30350845 185.40354416 76.299888 184.48457855 76.29615784 183.5377655 C76.28925075 181.53633684 76.28676084 179.5348893 76.28810501 177.53344917 C76.28906864 174.35867195 76.27614411 171.18423487 76.25912476 168.00950623 C76.21282435 158.98073027 76.18827606 149.95198619 76.18164062 140.9230957 C76.17660506 135.40282253 76.15224228 129.88289955 76.11631393 124.36274529 C76.10655439 122.26458789 76.10416285 120.16638204 76.10948563 118.06820869 C76.6177301 100.79256645 76.6177301 100.79256645 69.4140625 85.6171875 C63.53233981 81.46144231 63.53233981 81.46144231 56.5625 80.1875 C55.65371094 80.16300781 54.74492188 80.13851562 53.80859375 80.11328125 C50.72092957 80.06304391 47.64927373 80.10594719 44.5625 80.1875 C43.45455078 80.19523437 43.45455078 80.19523437 42.32421875 80.203125 C34.99405566 80.61443676 29.24894283 85.20068999 24.25 90.25 C17.04246129 99.25942339 16.44484839 112.43205247 16.35717773 123.53125 C16.34232834 124.71806114 16.34232834 124.71806114 16.32717896 125.92884827 C16.29587297 128.51503624 16.27093029 131.10124251 16.24609375 133.6875 C16.22549745 135.49211067 16.20450032 137.2967168 16.18312073 139.10131836 C16.12817622 143.82928779 16.07864623 148.55729874 16.03027344 153.28533936 C15.97985552 158.11864883 15.92427583 162.9518987 15.86914062 167.78515625 C15.76189739 177.25255314 15.66037863 186.72000199 15.5625 196.1875 C12.8089504 197.5642748 10.57409591 197.31719689 7.49609375 197.3203125 C6.28888672 197.32160156 5.08167969 197.32289063 3.83789062 197.32421875 C1.93813477 197.31841797 1.93813477 197.31841797 0 197.3125 C-1.90555664 197.31830078 -1.90555664 197.31830078 -3.84960938 197.32421875 C-5.05552734 197.32292969 -6.26144531 197.32164062 -7.50390625 197.3203125 C-8.61709229 197.31918457 -9.73027832 197.31805664 -10.87719727 197.31689453 C-13.4375 197.1875 -13.4375 197.1875 -14.4375 196.1875 C-14.53745474 193.67305291 -14.57191305 191.18601093 -14.56448364 188.67102051 C-14.56604363 187.87457894 -14.56760362 187.07813737 -14.56921089 186.25756121 C-14.57322414 183.56817345 -14.57003 180.87884138 -14.56689453 178.18945312 C-14.56824843 176.26976997 -14.57002829 174.35008707 -14.57220459 172.43040466 C-14.5767803 167.20121822 -14.5749888 161.97205141 -14.5718255 156.74286461 C-14.56930261 151.28336914 -14.57163924 145.82387541 -14.57321167 140.36437988 C-14.57503357 131.19425147 -14.57262651 122.0241311 -14.56787109 112.85400391 C-14.56242844 102.23567641 -14.56419108 91.61736811 -14.5696975 80.99904108 C-14.57422804 71.90014052 -14.57487947 62.80124575 -14.57225883 53.70234442 C-14.57069573 48.26018299 -14.57050319 42.8180306 -14.57379532 37.37586975 C-14.57667318 32.26076924 -14.57469992 27.14569359 -14.56890106 22.03059578 C-14.567573 20.14754846 -14.56796835 18.26449907 -14.57016373 16.38145256 C-14.57287345 13.82226611 -14.56949631 11.2631607 -14.56448364 8.70397949 C-14.56671436 7.94883954 -14.56894509 7.19369958 -14.57124341 6.41567659 C-14.53585093 -2.82195659 -7.78288508 0.0039487 0 0 Z " fill="#034F9B" transform="translate(768.4375,337.8125)"/>
<path d="M0 0 C8.87258395 8.31804745 12.22908421 21.37811007 12.72026634 33.16016769 C12.76106289 35.6897561 12.77155996 38.21764116 12.77026367 40.74755859 C12.77362228 41.70136414 12.7769809 42.65516968 12.78044128 43.63787842 C12.7898823 46.76641161 12.79189022 49.89489099 12.79296875 53.0234375 C12.79618358 55.20439679 12.79954782 57.38535586 12.80305481 59.5663147 C12.80902707 64.12380474 12.81089641 68.68127586 12.81030273 73.23876953 C12.81020064 79.09002744 12.82390992 84.94116529 12.84107494 90.79239464 C12.85216202 95.28924117 12.85422304 99.78605822 12.85369301 104.28291702 C12.85487591 106.44156945 12.85931492 108.60022256 12.86702538 110.75886154 C12.87676876 113.76559824 12.8739709 116.77206806 12.86791992 119.77880859 C12.87353943 120.67542206 12.87915894 121.57203552 12.88494873 122.49581909 C12.85332273 128.64667727 12.85332273 128.64667727 10.625 130.875 C8.56201172 131.10205078 8.56201172 131.10205078 6.0546875 131.0703125 C5.15878906 131.06386719 4.26289062 131.05742188 3.33984375 131.05078125 C1.93412109 131.02564453 1.93412109 131.02564453 0.5 131 C-0.44488281 130.99097656 -1.38976563 130.98195313 -2.36328125 130.97265625 C-4.70077292 130.94904522 -7.03776123 130.91611516 -9.375 130.875 C-10.01978923 129.47195834 -10.65939035 128.06653186 -11.296875 126.66015625 C-11.83199707 125.48658569 -11.83199707 125.48658569 -12.37792969 124.28930664 C-13.78770846 120.8756675 -14.5885388 117.47961381 -15.375 113.875 C-16.035 113.875 -16.695 113.875 -17.375 113.875 C-17.643125 114.514375 -17.91125 115.15375 -18.1875 115.8125 C-19.375 117.875 -19.375 117.875 -22.375 118.875 C-22.65601563 119.48214844 -22.93703125 120.08929687 -23.2265625 120.71484375 C-26.08359944 126.08879419 -33.66460715 128.748296 -39.0625 130.9921875 C-52.86240442 135.20436763 -71.17952177 134.87294465 -84.375 128.875 C-94.99325446 122.91316638 -101.13269956 114.97931733 -104.68359375 103.390625 C-106.60795085 93.60575841 -107.01588904 81.92738052 -102.375 72.875 C-101.78912109 71.65103516 -101.78912109 71.65103516 -101.19140625 70.40234375 C-95.13908253 59.0349482 -85.23970172 53.41245444 -73.36132812 49.47265625 C-67.79055257 47.79649369 -62.11528108 46.78853642 -56.375 45.875 C-55.27285156 45.67777344 -55.27285156 45.67777344 -54.1484375 45.4765625 C-48.69946417 44.61863904 -43.20333328 44.85942315 -37.70703125 44.90625 C-35.08571973 44.8816656 -32.64828967 44.74809991 -30.0625 44.375 C-25.79836863 43.7968127 -21.66866305 43.78554869 -17.375 43.875 C-18.46593676 31.67969491 -18.46593676 31.67969491 -21.375 19.875 C-23.34534802 18.3001892 -23.34534802 18.3001892 -25.375 17.875 C-25.375 17.215 -25.375 16.555 -25.375 15.875 C-42.14077622 10.12673387 -57.5948127 12.74701767 -73.375 19.875 C-74.79034387 20.48225903 -76.20676016 21.08703555 -77.625 21.6875 C-78.5325 22.079375 -79.44 22.47125 -80.375 22.875 C-84.40530801 19.70832942 -85.69851051 16.00204324 -87.41796875 11.34375 C-88.39327327 8.6607873 -88.39327327 8.6607873 -90.25 5.5 C-91.375 2.875 -91.375 2.875 -90.859375 0.8984375 C-84.77139436 -7.40044137 -64.529044 -10.03814545 -55.03515625 -11.71484375 C-35.57838519 -13.89516495 -15.97441006 -12.40437145 0 0 Z M-38.375 64.875 C-40.375 64.875 -42.375 64.875 -44.375 64.875 C-46.35036745 65.22286708 -46.35036745 65.22286708 -48.375 65.875 C-49.9528125 66.308125 -49.9528125 66.308125 -51.5625 66.75 C-52.820625 67.12125 -54.07875 67.4925 -55.375 67.875 C-56.48488281 68.18244141 -56.48488281 68.18244141 -57.6171875 68.49609375 C-62.84716403 70.0545211 -66.60273523 71.75182688 -70.375 75.875 C-73.35463824 81.5000222 -76.40280297 88.49420047 -74.8984375 94.90625 C-72.92908543 100.70610004 -70.5423539 104.77161983 -64.9375 107.625 C-53.55179087 111.61998566 -43.09066208 109.91766451 -32.375 104.875 C-31.715 104.58238281 -31.055 104.28976562 -30.375 103.98828125 C-26.91972823 102.06493661 -24.60160613 99.10045748 -22.375 95.875 C-21.59284412 93.1467496 -21.59284412 93.1467496 -21.375 90.875 C-20.715 90.545 -20.055 90.215 -19.375 89.875 C-18.47270392 86.52824224 -18.20688861 83.24612053 -18.05859375 79.79296875 C-17.99575195 78.39594727 -17.99575195 78.39594727 -17.93164062 76.97070312 C-17.89232422 76.01099609 -17.85300781 75.05128906 -17.8125 74.0625 C-17.74772461 72.59393555 -17.74772461 72.59393555 -17.68164062 71.09570312 C-17.5759774 68.68892973 -17.47387673 66.28206017 -17.375 63.875 C-19.9375718 63.84789877 -22.49985365 63.82811229 -25.0625 63.8125 C-26.1443457 63.79993164 -26.1443457 63.79993164 -27.24804688 63.78710938 C-31.10490052 63.76949817 -34.61939874 64.01715583 -38.375 64.875 Z " fill="#03529A" transform="translate(1258.375,404.125)"/>
<path d="M0 0 C0.73347656 0.50789063 1.46695313 1.01578125 2.22265625 1.5390625 C12.37334259 9.50370787 16.27207438 20.63226036 18 33 C18.2473022 36.47012026 18.27456735 39.9187935 18.25878906 43.39672852 C18.2622937 44.37047928 18.26579834 45.34423004 18.26940918 46.3474884 C18.27812109 49.52470291 18.27241914 52.70169001 18.265625 55.87890625 C18.2669737 58.10041852 18.26891594 60.32193051 18.27142334 62.54344177 C18.27435944 67.1771834 18.27012215 71.81084751 18.26074219 76.44458008 C18.24928839 82.39329139 18.25595398 88.34182339 18.26788712 94.2905283 C18.27509557 98.86715562 18.27282351 103.44374 18.26763153 108.02036858 C18.26629532 110.21530109 18.26794175 112.41023748 18.27259064 114.60516548 C18.27764566 117.65949067 18.26996281 120.71351929 18.25878906 123.76782227 C18.26283752 124.67842407 18.26688599 125.58902588 18.27105713 126.52722168 C18.22854033 132.77145967 18.22854033 132.77145967 16 135 C13.93701172 135.22705078 13.93701172 135.22705078 11.4296875 135.1953125 C10.53378906 135.18886719 9.63789062 135.18242188 8.71484375 135.17578125 C7.30912109 135.15064453 7.30912109 135.15064453 5.875 135.125 C4.93011719 135.11597656 3.98523438 135.10695313 3.01171875 135.09765625 C0.67422708 135.07404522 -1.66276123 135.04111516 -4 135 C-5.8882727 131.4298232 -7.3717319 128.22177727 -8.125 124.25 C-8.57678403 121.91974553 -8.93633097 120.12733806 -10 118 C-10.66 118 -11.32 118 -12 118 C-12.4021875 118.8971875 -12.4021875 118.8971875 -12.8125 119.8125 C-13.99917406 121.99847854 -15.09599113 123.41332594 -17 125 C-17.66 125 -18.32 125 -19 125 C-19 125.66 -19 126.32 -19 127 C-20.32 127.33 -21.64 127.66 -23 128 C-23 128.66 -23 129.32 -23 130 C-37.9176182 138.31944092 -56.24369154 139.62728508 -72.75 135.4375 C-83.27116067 131.82988577 -90.76879661 125.86574433 -96 116 C-101.23562827 104.3324723 -102.20257877 91.02390933 -97.875 78.9375 C-96.97106432 76.93290434 -96.0170792 74.94962903 -95 73 C-94.41798828 71.88044922 -94.41798828 71.88044922 -93.82421875 70.73828125 C-86.79894071 59.66748706 -73.36526434 54.75104809 -61.234375 51.859375 C-56.86781778 50.91894579 -52.53197525 50.33629938 -48.06640625 50.140625 C-45.80165314 50.07337679 -45.80165314 50.07337679 -43 49 C-40.77129387 48.95468958 -38.54133326 48.96144721 -36.3125 49 C-30.4810185 49.04938579 -30.4810185 49.04938579 -24.6875 48.5 C-20.42336863 47.9218127 -16.29366305 47.91054869 -12 48 C-12.31460925 40.9809592 -12.74854829 34.50003171 -15.28125 27.90234375 C-16.01644352 25.95647828 -16.53100305 24.02480412 -17 22 C-17.99 22 -18.98 22 -20 22 C-20 21.34 -20 20.68 -20 20 C-36.54657731 14.42920844 -52.41007648 16.67461425 -68 24 C-68.72058594 24.37253906 -69.44117188 24.74507813 -70.18359375 25.12890625 C-72.68704389 26.32948556 -74.26509517 26.49088035 -77 26 C-81.6182837 20.45805956 -83.8522513 11.80120421 -86 5 C-63.26446119 -8.69746042 -23.54504555 -16.46580023 0 0 Z M-28 68 C-28 68.66 -28 69.32 -28 70 C-28.75925781 69.91621094 -29.51851562 69.83242188 -30.30078125 69.74609375 C-31.29464844 69.64425781 -32.28851562 69.54242188 -33.3125 69.4375 C-34.29863281 69.33308594 -35.28476562 69.22867188 -36.30078125 69.12109375 C-39.09930347 68.83397473 -39.09930347 68.83397473 -42 70 C-43.010625 70.103125 -44.02125 70.20625 -45.0625 70.3125 C-51.96249779 71.51726152 -59.03032512 73.88415821 -64 79 C-68.44921989 85.46196222 -69.69684429 91.2840332 -69 99 C-68.07823401 103.12980195 -66.76273065 106.14481716 -63.9375 109.3125 C-55.04560224 114.42061148 -46.07654998 115.13439065 -36.22265625 112.68359375 C-27.86671599 110.11366485 -19.93930614 105.04770887 -15.625 97.25 C-11.56108106 87.86342617 -11.8009869 78.05016139 -12 68 C-17.28 68 -22.56 68 -28 68 Z " fill="#034F98" transform="translate(1004,400)"/>
<path d="M0 0 C15.66632328 12.33348762 21.48806813 26.50272305 25 46 C25 53.92 25 61.84 25 70 C-5.36 70 -35.72 70 -67 70 C-64.65369119 86.9360949 -64.65369119 86.9360949 -56 101 C-55.01 101.66 -54.02 102.32 -53 103 C-53 103.66 -53 104.32 -53 105 C-52.443125 105.103125 -51.88625 105.20625 -51.3125 105.3125 C-49 106 -49 106 -46.9375 107.4375 C-36.41531642 113.03440616 -23.0496268 111.21881067 -11.65234375 110.12109375 C-9 110 -9 110 -7 111 C-7 110.34 -7 109.68 -7 109 C-6.030625 108.9175 -5.06125 108.835 -4.0625 108.75 C-0.1915336 108.21258213 2.93260312 106.79483664 6.3984375 105.03515625 C10.11255912 103.55731506 14.09785001 102.86714444 18 102 C18 110.25 18 118.5 18 127 C-6.51521946 137.79837048 -35.39090687 140.50577224 -60.82421875 130.9375 C-74.79884701 124.61930073 -85.69236472 113.9706302 -92 100 C-92.96366162 97.33782035 -93.80530914 94.64703368 -94.625 91.9375 C-94.8415625 91.24333984 -95.058125 90.54917969 -95.28125 89.83398438 C-101.25532432 70.41824284 -100.43465229 44.52446281 -91.19140625 26.07421875 C-82.19268766 10.40759721 -71.68907811 -1.40504969 -53.890625 -6.97265625 C-36.12682404 -11.37267607 -15.59252294 -10.49354625 0 0 Z M-57.5078125 23.1796875 C-62.43095208 29.18540228 -65.63113403 37.38742903 -67 45 C-66.67 45.99 -66.34 46.98 -66 48 C-46.2 48 -26.4 48 -6 48 C-4.46548426 40.32742128 -6.06349711 33.77078497 -10 27 C-10.41507813 26.18660156 -10.83015625 25.37320313 -11.2578125 24.53515625 C-13.33289948 21.51557901 -15.19873452 20.41991979 -18.4375 18.75 C-19.38496094 18.24984375 -20.33242187 17.7496875 -21.30859375 17.234375 C-32.91555912 11.91100627 -48.23276931 14.34842628 -57.5078125 23.1796875 Z " fill="#035099" transform="translate(1681,401)"/>
<path d="M0 0 C1.87435325 1.476867 3.58531665 2.87111428 5.13671875 4.68359375 C5.13671875 5.34359375 5.13671875 6.00359375 5.13671875 6.68359375 C5.79671875 6.68359375 6.45671875 6.68359375 7.13671875 6.68359375 C8.28386312 8.75704186 9.40313647 10.839605 10.51171875 12.93359375 C11.13820313 14.09375 11.7646875 15.25390625 12.41015625 16.44921875 C17.82520283 28.51267235 16.41302651 42.78869163 16.3671875 55.6953125 C16.36599377 57.91779046 16.36554295 60.14026893 16.36579895 62.36274719 C16.36424267 66.9947124 16.356013 71.62659937 16.3425293 76.25854492 C16.32543111 82.20840619 16.32171852 88.15818263 16.32247448 94.10806561 C16.32220345 98.68464473 16.31673487 103.26120516 16.30947304 107.83777809 C16.30628403 110.03353547 16.30431842 112.22929498 16.30357933 114.42505455 C16.3014244 117.47701057 16.29270191 120.52887421 16.28198242 123.58081055 C16.28243561 124.49343658 16.28288879 125.40606262 16.28335571 126.34634399 C16.25120349 132.56910901 16.25120349 132.56910901 15.13671875 133.68359375 C13.06409799 133.77126487 10.98851581 133.79055248 8.9140625 133.78125 C7.65400391 133.77802734 6.39394531 133.77480469 5.09570312 133.77148438 C3.75520766 133.76312778 2.41471287 133.75466282 1.07421875 133.74609375 C-0.27018067 133.74108035 -1.61458185 133.73651717 -2.95898438 133.73242188 C-6.26046066 133.72058863 -9.56184928 133.70410346 -12.86328125 133.68359375 C-14.53733758 130.33548109 -14.01656883 126.56118135 -14.02099609 122.87866211 C-14.02607681 121.96623749 -14.03115753 121.05381287 -14.03639221 120.11373901 C-14.0471112 118.12703862 -14.05572535 116.14032604 -14.06251144 114.15360832 C-14.07428902 111.00464941 -14.09374159 107.85582835 -14.1156311 104.70692444 C-14.17726702 95.75168481 -14.23119661 86.79645712 -14.26464844 77.84106445 C-14.28565118 72.36621392 -14.32100619 66.8916111 -14.36540604 61.41690254 C-14.37952917 59.33384694 -14.38828011 57.25074746 -14.39146042 55.16764641 C-14.39639584 52.24293195 -14.41962386 49.31886825 -14.44677734 46.39428711 C-14.44377121 45.54146652 -14.44076508 44.68864594 -14.43766785 43.8099823 C-14.55208512 35.4674412 -16.48754538 28.2871034 -22.25390625 22.12109375 C-29.65249849 15.51264243 -39.13272342 16.45259177 -48.3671875 16.76953125 C-53.62084017 17.14288728 -56.54598862 18.49702062 -60.86328125 21.68359375 C-61.85328125 21.68359375 -62.84328125 21.68359375 -63.86328125 21.68359375 C-64.17265625 22.30234375 -64.48203125 22.92109375 -64.80078125 23.55859375 C-65.48828125 24.93359375 -66.17578125 26.30859375 -66.86328125 27.68359375 C-67.52328125 27.68359375 -68.18328125 27.68359375 -68.86328125 27.68359375 C-68.98643707 28.3729451 -69.1095929 29.06229645 -69.23648071 29.77253723 C-69.86328125 32.68359375 -69.86328125 32.68359375 -70.81698608 35.75810242 C-74.08640725 46.40898731 -74.43500683 56.37080134 -74.40234375 67.453125 C-74.4122728 69.31020758 -74.42422233 71.16728034 -74.43807983 73.02433777 C-74.47013918 77.86166664 -74.48080992 82.69876921 -74.48492432 87.53619385 C-74.493755 95.32245054 -74.52907591 103.10852495 -74.57709885 110.89462852 C-74.58969247 113.60802979 -74.58892734 116.32119761 -74.58682251 119.03462219 C-74.59339709 120.68429753 -74.6004022 122.33397123 -74.60791016 123.98364258 C-74.60378616 124.73834839 -74.59966217 125.4930542 -74.59541321 126.27062988 C-74.63599363 131.45630613 -74.63599363 131.45630613 -76.86328125 133.68359375 C-79.64477539 133.92651367 -79.64477539 133.92651367 -83.1484375 133.9140625 C-84.40076172 133.91212891 -85.65308594 133.91019531 -86.94335938 133.90820312 C-88.25755859 133.89595703 -89.57175781 133.88371094 -90.92578125 133.87109375 C-92.24384766 133.87044922 -93.56191406 133.86980469 -94.91992188 133.86914062 C-104.72319002 133.82368498 -104.72319002 133.82368498 -105.86328125 132.68359375 C-105.96183035 130.90163503 -105.98960225 129.11573627 -105.99026489 127.33105469 C-105.99308472 126.16997192 -105.99590454 125.00888916 -105.99880981 123.81262207 C-105.99678558 122.52738647 -105.99476135 121.24215088 -105.99267578 119.91796875 C-105.99402981 118.55985466 -105.99580975 117.20174095 -105.99798584 115.84362793 C-106.00256002 112.14538174 -106.00077068 108.44716333 -105.99760675 104.74891663 C-105.99508307 100.88697228 -105.99742071 97.02503038 -105.99899292 93.16308594 C-106.00081459 86.67642793 -105.99840837 80.18978129 -105.99365234 73.703125 C-105.98820973 66.19309452 -105.98997238 58.68309119 -105.99547875 51.17306137 C-106.00000995 44.73655845 -106.0006604 38.30006372 -105.99804008 31.86355972 C-105.99647734 28.01430059 -105.99628345 24.16505423 -105.99957657 20.3157959 C-106.00245538 16.69778669 -106.00047941 13.07981264 -105.99468231 9.46180725 C-105.99271916 7.49272714 -105.99570854 5.52364408 -105.99880981 3.55456543 C-105.99458008 1.81294128 -105.99458008 1.81294128 -105.99026489 0.03613281 C-105.98988787 -0.97930603 -105.98951084 -1.99474487 -105.98912239 -3.04095459 C-105.86328125 -5.31640625 -105.86328125 -5.31640625 -104.86328125 -6.31640625 C-103.15555767 -6.40354456 -101.44429476 -6.42340632 -99.734375 -6.4140625 C-98.18266602 -6.40922852 -98.18266602 -6.40922852 -96.59960938 -6.40429688 C-95.51099609 -6.39591797 -94.42238281 -6.38753906 -93.30078125 -6.37890625 C-91.66206055 -6.37213867 -91.66206055 -6.37213867 -89.99023438 -6.36523438 C-87.2811963 -6.35340451 -84.57226526 -6.33692168 -81.86328125 -6.31640625 C-80.44608387 -2.87428093 -79.42207277 0.33292488 -78.73828125 3.99609375 C-78.57070312 4.87910156 -78.403125 5.76210938 -78.23046875 6.671875 C-78.10929687 7.33574219 -77.988125 7.99960937 -77.86328125 8.68359375 C-76.87328125 7.81734375 -75.88328125 6.95109375 -74.86328125 6.05859375 C-74.21359375 5.51074219 -73.56390625 4.96289062 -72.89453125 4.3984375 C-71.62668369 3.32808158 -70.37366376 2.23959971 -69.14453125 1.125 C-50.94325841 -14.24230273 -18.92037496 -13.00956869 0 0 Z " fill="#035299" transform="translate(1841.86328125,401.31640625)"/>
<path d="M0 0 C0.83724609 -0.01224609 1.67449219 -0.02449219 2.53710938 -0.03710938 C3.73883789 -0.04000977 3.73883789 -0.04000977 4.96484375 -0.04296875 C5.70210693 -0.04707764 6.43937012 -0.05118652 7.19897461 -0.05541992 C9.0625 0.1875 9.0625 0.1875 11.0625 2.1875 C11.28955078 5.07666016 11.28955078 5.07666016 11.2578125 8.7265625 C11.25281738 9.89912598 11.24782227 11.07168945 11.24267578 12.27978516 C11.22446777 13.77558105 11.20625977 15.27137695 11.1875 16.8125 C11.14625 21.55625 11.105 26.3 11.0625 31.1875 C23.6025 31.1875 36.1425 31.1875 49.0625 31.1875 C49.0625 38.7775 49.0625 46.3675 49.0625 54.1875 C36.5225 54.1875 23.9825 54.1875 11.0625 54.1875 C10.94604484 68.18649141 10.94604484 68.18649141 10.8671875 82.18554688 C10.84332954 87.90013594 10.81518714 93.61446723 10.76074219 99.32885742 C10.71709642 103.93894834 10.69332346 108.54876259 10.68299103 113.15904427 C10.67563314 114.91282566 10.66126517 116.6665929 10.63957977 118.42025566 C10.12596115 131.46027409 10.12596115 131.46027409 15.0625 143.1875 C20.6785106 148.20879969 27.71703801 148.34100817 34.9375 148.0859375 C39.97380173 147.71642623 44.29051788 146.90051922 49.0625 145.1875 C49.7225 145.5175 50.3825 145.8475 51.0625 146.1875 C51.0625 153.4475 51.0625 160.7075 51.0625 168.1875 C36.03952474 173.82111572 17.90789996 176.77136243 2.53515625 170.4453125 C-7.44511398 165.36846098 -13.46723229 159.77167325 -17.375 149.125 C-18.8539711 144.32290867 -19.25595948 141.02185143 -17.9375 136.1875 C-18.5975 136.1875 -19.2575 136.1875 -19.9375 136.1875 C-19.6075 109.1275 -19.2775 82.0675 -18.9375 54.1875 C-25.2075 54.1875 -31.4775 54.1875 -37.9375 54.1875 C-37.9375 49.2375 -37.9375 44.2875 -37.9375 39.1875 C-35.52117661 37.89518774 -33.10445604 36.60362809 -30.6875 35.3125 C-30.00558594 34.94769531 -29.32367187 34.58289063 -28.62109375 34.20703125 C-27.95722656 33.85253906 -27.29335937 33.49804688 -26.609375 33.1328125 C-25.69816895 32.64578857 -25.69816895 32.64578857 -24.76855469 32.14892578 C-22.9375 31.1875 -22.9375 31.1875 -20.85327148 30.45874023 C-17.93083635 28.51951254 -17.61378621 26.2099334 -16.61328125 22.90234375 C-16.22462891 21.65001953 -15.83597656 20.39769531 -15.43554688 19.10742188 C-15.03973546 17.78013536 -14.64456073 16.45265884 -14.25 15.125 C-13.45955082 12.52835078 -12.66123769 9.93420464 -11.86328125 7.33984375 C-11.51692627 6.18476318 -11.17057129 5.02968262 -10.8137207 3.83959961 C-9.04405289 -1.51673961 -4.92547539 0.00377431 0 0 Z " fill="#035198" transform="translate(1330.9375,363.8125)"/>
<path d="M0 0 C0.7425 -0.01224609 1.485 -0.02449219 2.25 -0.03710938 C6.77177483 -0.04909288 10.36558122 0.4769715 14.625 2.1875 C15.01313666 11.3518377 14.5420008 21.4364976 11.625 30.1875 C10.69880859 29.9709375 10.69880859 29.9709375 9.75390625 29.75 C-0.80997876 27.43462794 -10.09835828 27.16163145 -19.83203125 32.546875 C-29.23302782 38.59594079 -34.41672937 45.82060073 -38.375 56.1875 C-39.35667042 60.86054857 -39.53699362 65.43939699 -39.56445312 70.1965332 C-39.57274643 70.97608871 -39.58103973 71.75564423 -39.58958435 72.55882263 C-39.60690479 74.24152477 -39.62209298 75.92424994 -39.63536072 77.60698891 C-39.65647638 80.26679745 -39.68348679 82.92648892 -39.71203613 85.58622742 C-39.78168218 92.18529387 -39.84141882 98.78444276 -39.90106201 105.38360596 C-39.95190828 110.97302147 -40.00667223 116.56237057 -40.06687927 122.15169334 C-40.09351948 124.7780551 -40.11428579 127.40442294 -40.1348877 130.03083801 C-40.15148027 131.62904157 -40.16835118 133.22724227 -40.18554688 134.82543945 C-40.18973129 135.56047699 -40.19391571 136.29551453 -40.19822693 137.05282593 C-40.2611433 142.0736433 -40.2611433 142.0736433 -41.375 143.1875 C-43.4355531 143.28743532 -45.4995259 143.31830906 -47.5625 143.3203125 C-48.81804687 143.32160156 -50.07359375 143.32289063 -51.3671875 143.32421875 C-52.02428711 143.32212402 -52.68138672 143.3200293 -53.35839844 143.31787109 C-55.36661335 143.31252234 -57.37460459 143.31781691 -59.3828125 143.32421875 C-60.63835937 143.32292969 -61.89390625 143.32164062 -63.1875 143.3203125 C-64.34894531 143.31918457 -65.51039062 143.31805664 -66.70703125 143.31689453 C-69.375 143.1875 -69.375 143.1875 -70.375 142.1875 C-70.4735491 140.40554128 -70.501321 138.61964252 -70.50198364 136.83496094 C-70.50480347 135.67387817 -70.50762329 134.51279541 -70.51052856 133.31652832 C-70.50850433 132.03129272 -70.5064801 130.74605713 -70.50439453 129.421875 C-70.50574856 128.06376091 -70.5075285 126.7056472 -70.50970459 125.34753418 C-70.51427877 121.64928799 -70.51248943 117.95106958 -70.5093255 114.25282288 C-70.50680182 110.39087853 -70.50913946 106.52893663 -70.51071167 102.66699219 C-70.51253334 96.18033418 -70.51012712 89.69368754 -70.50537109 83.20703125 C-70.49992848 75.69700077 -70.50169113 68.18699744 -70.5071975 60.67696762 C-70.5117287 54.2404647 -70.51237915 47.80396997 -70.50975883 41.36746597 C-70.50819609 37.51820684 -70.5080022 33.66896048 -70.51129532 29.81970215 C-70.51417413 26.20169294 -70.51219816 22.58371889 -70.50640106 18.9657135 C-70.50443791 16.99663339 -70.50742729 15.02755033 -70.51052856 13.05847168 C-70.50629883 11.31684753 -70.50629883 11.31684753 -70.50198364 9.54003906 C-70.50160662 8.52460022 -70.50122959 7.50916138 -70.50084114 6.46295166 C-70.375 4.1875 -70.375 4.1875 -69.375 3.1875 C-67.66727642 3.10036169 -65.95601351 3.08049993 -64.24609375 3.08984375 C-62.69438477 3.09467773 -62.69438477 3.09467773 -61.11132812 3.09960938 C-60.02271484 3.10798828 -58.93410156 3.11636719 -57.8125 3.125 C-56.1737793 3.13176758 -56.1737793 3.13176758 -54.50195312 3.13867188 C-51.79294568 3.1505016 -49.0839662 3.16843769 -46.375 3.1875 C-45.055 10.1175 -43.735 17.0475 -42.375 24.1875 C-41.26125 22.7025 -40.1475 21.2175 -39 19.6875 C-28.90642529 7.16792575 -16.16768189 0.01388976 0 0 Z " fill="#035199" transform="translate(1130.375,391.8125)"/>
<path d="M0 0 C9.16796522 10.55705086 9.56513896 25.59092234 8.8125 38.875 C7.31350103 51.21432082 -0.22627028 63.18388396 -6.15625 73.94140625 C-17.49858537 94.52477115 -24.41224723 119.52083315 -18 142.8125 C-17.62875 144.05644531 -17.2575 145.30039062 -16.875 146.58203125 C-15.80826493 150.7489651 -15.06278965 154.18582853 -17.09375 158.1171875 C-17.5578125 158.69726562 -18.021875 159.27734375 -18.5 159.875 C-18.9640625 160.47054687 -19.428125 161.06609375 -19.90625 161.6796875 C-20.2671875 162.11539063 -20.628125 162.55109375 -21 163 C-22.90625 162.67578125 -22.90625 162.67578125 -25 162 C-26.26345229 159.63102696 -27.13471807 157.52302502 -28 155 C-28.34289062 154.02417969 -28.68578125 153.04835938 -29.0390625 152.04296875 C-35.86719429 132.12349075 -35.38948446 109.29933953 -26.83300781 89.9375 C-25.89458934 87.75482445 -25.04659724 85.54469479 -24.19140625 83.328125 C-21.78916514 77.29225148 -18.87837016 71.53792114 -15.9375 65.75 C-15.40833984 64.70070313 -14.87917969 63.65140625 -14.33398438 62.5703125 C-12.31504514 58.56789845 -10.29363604 54.56778295 -8.234375 50.5859375 C-2.42916909 38.42439855 -3.06297972 26.90161762 -6.734375 14.2265625 C-8.08843507 10.77454515 -9.91152942 8.04969134 -12 5 C-12.125 2.75 -12.125 2.75 -11 1 C-7.11334381 -0.854995 -4.04069565 -1.70134554 0 0 Z " fill="#034B97" transform="translate(196,271)"/>
<path d="M0 0 C1.43836751 0.11458693 2.87570966 0.24209116 4.3125 0.375 C5.51326172 0.47941406 5.51326172 0.47941406 6.73828125 0.5859375 C9 1 9 1 12 3 C14.50523635 15.32969262 8.16961185 28.73743626 2 39 C-6.28373139 50.62686751 -18.86184848 57.70348156 -30.75 65.125 C-37.53275594 69.36530485 -44.05349467 73.61316576 -50 79 C-50.4748584 79.42716309 -50.9497168 79.85432617 -51.43896484 80.29443359 C-59.26889309 87.42991144 -64.84608234 94.74778636 -70 104 C-70.52207031 104.80695313 -71.04414063 105.61390625 -71.58203125 106.4453125 C-73.29484607 109.53121027 -74.18727344 112.53731825 -75.125 115.9375 C-75.45757812 117.12214844 -75.79015625 118.30679688 -76.1328125 119.52734375 C-76.9196687 122.67831294 -77.46885221 125.7991357 -78 129 C-79.47563225 131.9512645 -81.50079352 132.06923915 -84.5625 133.125 C-86.08037109 133.65480469 -86.08037109 133.65480469 -87.62890625 134.1953125 C-88.41136719 134.46085938 -89.19382813 134.72640625 -90 135 C-93.16071051 120.6787117 -85.33625502 103.76558905 -77.8125 91.8125 C-66.99400348 75.33520425 -52.06188597 64.08804428 -35.72363281 53.52880859 C-13.27429246 39.17084031 -13.27429246 39.17084031 -1.5234375 15.9609375 C-0.58880181 10.67396845 -0.24702657 5.35792112 0 0 Z " fill="#034D98" transform="translate(293,269)"/>
<path d="M0 0 C0.99 0 1.98 0 3 0 C6.99494228 6.05294286 6.99494228 6.05294286 7.015625 9.92578125 C5.65219681 14.05277351 3.17181285 15.74985837 -0.3125 18.0625 C-0.94188477 18.49296631 -1.57126953 18.92343262 -2.21972656 19.36694336 C-10.91667191 25.14557551 -19.48921064 28.78642808 -30 29 C-31.65708984 29.05800781 -31.65708984 29.05800781 -33.34765625 29.1171875 C-40.80519529 29.26325464 -47.72870843 28.6620095 -55 27 C-55 26.34 -55 25.68 -55 25 C-55.80630859 25.29003906 -55.80630859 25.29003906 -56.62890625 25.5859375 C-59.73653187 26.12862006 -61.90507629 25.45862972 -64.9375 24.625 C-68.61521302 23.63001822 -72.25271726 22.69198648 -76 22 C-76.91394531 21.83040771 -77.82789063 21.66081543 -78.76953125 21.48608398 C-101.39011262 18.08239766 -121.32198629 21.86969491 -141 33 C-141.69222656 33.60328125 -142.38445312 34.2065625 -143.09765625 34.828125 C-145 36 -145 36 -147.796875 35.63671875 C-148.77140625 35.32347656 -149.7459375 35.01023437 -150.75 34.6875 C-151.73484375 34.38199219 -152.7196875 34.07648438 -153.734375 33.76171875 C-154.85585938 33.38466797 -154.85585938 33.38466797 -156 33 C-156 29 -156 29 -154.41796875 27.2890625 C-148.55415629 22.91430924 -142.56453776 19.23301246 -136 16 C-135.08605469 15.54496094 -134.17210937 15.08992188 -133.23046875 14.62109375 C-108.86929497 3.45694434 -81.60672099 7.71204725 -56.35546875 13.00146484 C-40.87218474 16.22714901 -26.86453563 18.78963207 -12.32421875 10.46875 C-10.82695735 9.46894206 -9.34896248 8.4389626 -7.90234375 7.3671875 C-6 6 -6 6 -3.83203125 4.953125 C-1.48068006 3.72982076 -0.96504232 2.4126058 0 0 Z " fill="#EB8B1E" transform="translate(423,362)"/>
<path d="M0 0 C2.83833554 1.13533421 4.80962228 2.29083424 7.125 4.25 C6.63551418 10.16267797 4.82349319 14.47546968 2.0625 19.6875 C1.68544922 20.41904297 1.30839844 21.15058594 0.91992188 21.90429688 C-0.00259296 23.69093953 -0.9375312 25.47115829 -1.875 27.25 C-2.535 27.25 -3.195 27.25 -3.875 27.25 C-4.101875 27.806875 -4.32875 28.36375 -4.5625 28.9375 C-6.26464768 31.9365221 -8.35177762 33.89499245 -10.875 36.25 C-11.7825 37.19875 -12.69 38.1475 -13.625 39.125 C-22.7488662 46.85438883 -36.66924872 49.96532261 -47.875 53.25 C-72.87847737 60.83412014 -95.2506775 73.31621635 -108.875 96.25 C-109.50088722 97.8039269 -110.10928519 99.36521146 -110.6875 100.9375 C-112.875 104.25 -112.875 104.25 -115.77734375 105.17578125 C-118.8191691 105.69754126 -121.7961836 106.05636375 -124.875 106.25 C-125.875 103.25 -125.875 103.25 -124.36328125 99.66796875 C-123.64826818 98.25258907 -122.92252864 96.8425894 -122.1875 95.4375 C-121.83494141 94.73818359 -121.48238281 94.03886719 -121.11914062 93.31835938 C-118.95873121 89.09627955 -116.58287432 85.15268896 -113.875 81.25 C-113.40835938 80.55132812 -112.94171875 79.85265625 -112.4609375 79.1328125 C-111.31533663 77.46984349 -110.09688881 75.85774844 -108.875 74.25 C-108.215 74.25 -107.555 74.25 -106.875 74.25 C-106.875 73.59 -106.875 72.93 -106.875 72.25 C-105.5 70.625 -105.5 70.625 -103.875 69.25 C-103.215 69.25 -102.555 69.25 -101.875 69.25 C-101.38 67.765 -101.38 67.765 -100.875 66.25 C-97.74131534 63.64504403 -94.26991353 61.49930485 -90.875 59.25 C-90.06933594 58.67894531 -89.26367188 58.10789062 -88.43359375 57.51953125 C-75.7003293 48.81149281 -60.88470372 44.08718164 -46.2578125 39.609375 C-29.21231498 34.37254971 -16.98591603 28.32870607 -8.22265625 12.2109375 C-7.0088955 9.544182 -6.31557465 7.30453706 -5.8125 4.4375 C-5.40234375 2.10546875 -5.40234375 2.10546875 -4.875 0.25 C-2.875 -0.75 -2.875 -0.75 0 0 Z " fill="#EC8D1E" transform="translate(347.875,288.75)"/>
<path d="M0 0 C1.32 0.33 2.64 0.66 4 1 C4 1.99 4 2.98 4 4 C4.66 4 5.32 4 6 4 C6 4.66 6 5.32 6 6 C6.66 6 7.32 6 8 6 C23.60693652 26.82491831 26.60052801 52.8025717 23.45703125 77.9609375 C22.91742403 81.5771288 22.23551506 85.15468636 21.47949219 88.73144531 C20.94463325 91.26194902 20.4434709 93.79796108 19.9453125 96.3359375 C19.26637619 99.78421929 18.57385059 103.22917538 17.8671875 106.671875 C14.89693833 121.34932967 14.94327603 134.72616297 23.3046875 147.73046875 C25.877423 151.17461466 28.7990298 154.13996154 32 157 C30.2958054 160.75856617 28.85139376 162.29822136 25 164 C21.63384277 163.81849152 20.26700432 163.24332219 17.75390625 160.953125 C5.99801976 146.45210281 1.19059969 131.48419816 3 113 C4.08363333 106.43135253 5.73868244 99.98958216 7.37158203 93.54003906 C12.72512718 71.90123419 15.97278128 47.36952623 5 27 C3.890606 24.81514641 2.78645776 22.62762149 1.6875 20.4375 C1.17574219 19.44621094 0.66398437 18.45492187 0.13671875 17.43359375 C-1 15 -1 15 -1 13 C-1.66 13 -2.32 13 -3 13 C-4.23593891 9.29218328 -3.5678132 8.32489747 -2.0625 4.8125 C-1.68222656 3.91144531 -1.30195313 3.01039063 -0.91015625 2.08203125 C-0.60980469 1.39496094 -0.30945313 0.70789063 0 0 Z " fill="#EB8F1E" transform="translate(327,494)"/>
<path d="M0 0 C25.52589106 1.19395297 45.06335974 12.00791417 63 30 C70 37.99826087 70 37.99826087 70 41 C70.66 41 71.32 41 72 41 C74.91372355 44.98018446 77.37408168 49.24410262 79.90893555 53.47265625 C83.88989058 60.10919705 87.83800069 66.54649262 92.85546875 72.46875 C94 74 94 74 94 76 C94.556875 76.226875 95.11375 76.45375 95.6875 76.6875 C98 78 98 78 100.0625 80.3125 C103.62676377 83.57342218 107.2367631 85.0664255 111.671875 86.88671875 C114 88 114 88 115 90 C115.598125 89.814375 116.19625 89.62875 116.8125 89.4375 C119 89 119 89 122 90 C123.89470816 90.0685495 125.7916834 90.08480372 127.6875 90.0625 C128.68136719 90.05347656 129.67523438 90.04445313 130.69921875 90.03515625 C131.45847656 90.02355469 132.21773437 90.01195312 133 90 C134.44810616 92.31280265 135.12565635 93.41644339 134.5390625 96.140625 C134.08660156 97.18476562 134.08660156 97.18476562 133.625 98.25 C133.18027344 99.30960938 133.18027344 99.30960938 132.7265625 100.390625 C132.48679687 100.92171875 132.24703125 101.4528125 132 102 C116.07775214 102.8593717 102.82688433 99.05482322 90.37890625 88.8515625 C83.25076061 82.15711059 78.12866158 74.2462167 73 66 C72.35289062 64.97261719 71.70578125 63.94523437 71.0390625 62.88671875 C67 56.3350939 67 56.3350939 67 54 C66.34 54 65.68 54 65 54 C65 53.01 65 52.02 65 51 C64.34 51 63.68 51 63 51 C62.505 49.02 62.505 49.02 62 47 C61.34 47 60.68 47 60 47 C58.79972216 45.58613889 57.66571652 44.11583314 56.5625 42.625 C44.78024974 27.55567267 29.4722751 17.82396993 11 13 C10.01 13 9.02 13 8 13 C8 12.34 8 11.68 8 11 C6.68 11.33 5.36 11.66 4 12 C3.32332002 10.75539217 2.65905281 9.50403104 2 8.25 C1.62875 7.55390625 1.2575 6.8578125 0.875 6.140625 C0 4 0 4 0 0 Z " fill="#034C96" transform="translate(318,430)"/>
<path d="M0 0 C2.0625 0.4375 2.0625 0.4375 4 1 C4 1.66 4 2.32 4 3 C4.58007812 3.26425781 5.16015625 3.52851563 5.7578125 3.80078125 C11.73418016 6.99720089 16.43858832 12.25894917 20.69140625 17.4453125 C22.07625344 19.15101734 22.07625344 19.15101734 24.1875 21.0625 C26.44924394 23.48022628 27.5520813 26.02472566 29 29 C29.47179687 29.88558594 29.94359375 30.77117187 30.4296875 31.68359375 C40.10262804 50.11446695 42.10799175 68.35967223 43.10449219 88.76464844 C43.93903832 105.49385296 44.9441128 123.78423076 58 136 C61.33380089 138.33479003 64.83476052 140.31870757 68.40234375 142.2734375 C69.68818359 143.12808594 69.68818359 143.12808594 71 144 C71 147 71 147 68.8125 150.1875 C66 153 66 153 63.62890625 153.3671875 C56.0556848 152.30941214 48.79736493 144.66747524 44 139 C34.02240722 125.77498315 31.78761123 111.49087766 31.03372192 95.23684692 C30.86915874 91.73195912 30.66310715 88.22944856 30.4609375 84.7265625 C30.42249222 84.0480574 30.38404694 83.36955231 30.34443665 82.67048645 C29.41715137 66.49131403 29.41715137 66.49131403 25 51 C24.62746094 49.96230469 24.25492187 48.92460938 23.87109375 47.85546875 C19.47159432 35.78787626 13.08526997 24.32508134 2.5 16.625 C-0.2326211 14.40040044 -0.9187315 13.46506938 -1.53515625 9.9375 C-1.56031764 6.88937739 -1.46091725 4.01259319 -1 1 C-0.67 0.67 -0.34 0.34 0 0 Z " fill="#034C97" transform="translate(330,472)"/>
<path d="M0 0 C24.09085568 7.15742814 40.51350368 23.66060232 52.7109375 44.9921875 C59.35430126 57.68136379 64.06582469 71.32453536 67.87109375 85.09960938 C69.19025362 89.76652089 70.79725721 93.92846041 73.1262207 98.18896484 C74.05001723 100.103668 74.55269995 101.92669996 75 104 C75.66 104 76.32 104 77 104 C77.2475 104.78375 77.495 105.5675 77.75 106.375 C79.17491464 109.36732074 79.97767187 109.86662695 83 111 C83.66 111.33 84.32 111.66 85 112 C85 112.66 85 113.32 85 114 C85.72316406 114.28875 86.44632812 114.5775 87.19140625 114.875 C88.95068276 115.57968934 90.70870563 116.28752558 92.46484375 117 C96.93818401 118.80912339 101.39524333 120.54586632 106 122 C106 126.24645065 104.18249194 128.38524772 102 132 C89.69396182 131.78782693 79.05144536 125.18864333 70.45703125 116.7578125 C59.6808141 104.6624082 54.53622578 88.75596584 50.46875 73.30859375 C49.25381718 68.74643003 47.75052451 64.48828299 45.8125 60.1875 C45.51496826 59.51807373 45.21743652 58.84864746 44.91088867 58.15893555 C38.17390753 43.13745921 38.17390753 43.13745921 27.5 31 C25 29 25 29 23.16796875 26.59765625 C20.89917394 23.8791904 18.80834098 22.30071423 15.8125 20.4375 C14.85085938 19.83164062 13.88921875 19.22578125 12.8984375 18.6015625 C10.24769499 17.1368665 7.80675106 16.23177461 4.9375 15.3125 C2.75390625 14.4375 2.75390625 14.4375 1 13 C-0.42596615 9.03958082 -0.96184685 5.20320505 -1 1 C-0.67 0.67 -0.34 0.34 0 0 Z " fill="#EE8E1E" transform="translate(327,450)"/>
<path d="M0 0 C9.82373178 7.03956515 18.7263108 15.14993297 27.43994141 23.50219727 C30.07157666 25.99849794 32.62569603 28.22414719 35.69360352 30.17089844 C36.54825195 30.74710937 37.40290039 31.32332031 38.28344727 31.91699219 C38.28344727 32.57699219 38.28344727 33.23699219 38.28344727 33.91699219 C39.14583008 34.10455078 39.14583008 34.10455078 40.02563477 34.29589844 C42.32858094 34.92940785 44.26542803 35.80670603 46.40844727 36.85449219 C56.87284215 41.53953173 66.37269456 41.34543101 77.40844727 38.79199219 C78.68719727 38.50324219 79.96594727 38.21449219 81.28344727 37.91699219 C82.28344727 38.91699219 82.28344727 38.91699219 82.38110352 41.20214844 C82.36370117 42.57693359 82.36370117 42.57693359 82.34594727 43.97949219 C82.33692383 44.89859375 82.32790039 45.81769531 82.31860352 46.76464844 C82.30120117 47.83005859 82.30120117 47.83005859 82.28344727 48.91699219 C70.42548282 54.4829755 57.56685798 54.14124362 45.30297852 49.88183594 C36.12834172 46.26547086 27.10293591 41.19696078 20.28344727 33.91699219 C20.28344727 33.25699219 20.28344727 32.59699219 20.28344727 31.91699219 C19.52032227 31.64886719 18.75719727 31.38074219 17.97094727 31.10449219 C15.39356109 29.96564713 14.01389862 29.10282548 12.28344727 26.91699219 C12.28344727 26.25699219 12.28344727 25.59699219 12.28344727 24.91699219 C11.62344727 24.91699219 10.96344727 24.91699219 10.28344727 24.91699219 C10.28344727 24.25699219 10.28344727 23.59699219 10.28344727 22.91699219 C9.70594727 22.64886719 9.12844727 22.38074219 8.53344727 22.10449219 C6.22794684 20.8877003 4.26288534 19.6136534 2.28344727 17.91699219 C2.28344727 17.25699219 2.28344727 16.59699219 2.28344727 15.91699219 C1.75493164 15.67464844 1.22641602 15.43230469 0.68188477 15.18261719 C-1.77269088 13.8873688 -4.03642669 12.39662521 -6.33496094 10.8449707 C-16.37871751 4.10958148 -26.71603118 -0.91897934 -38.71655273 -3.08300781 C-39.70655273 -3.41300781 -40.69655273 -3.74300781 -41.71655273 -4.08300781 C-48.29790117 -5.29182691 -55.44583958 -6.1091139 -61.90405273 -4.08300781 C-64.71655273 -4.08300781 -64.71655273 -4.08300781 -66.63452148 -5.69238281 C-71.71655273 -11.25117149 -71.71655273 -11.25117149 -71.71655273 -15.08300781 C-46.73564622 -21.54843651 -20.88706664 -14.41022071 0 0 Z " fill="#EC8D1E" transform="translate(375.716552734375,428.0830078125)"/>
<path d="M0 0 C1.65 0.33 3.3 0.66 5 1 C5.33 1.99 5.66 2.98 6 4 C6.99 4.33 7.98 4.66 9 5 C9.86328125 6.77734375 9.86328125 6.77734375 10 9 C8.85546875 11.25390625 8.85546875 11.25390625 7.1875 13.5625 C6.37345703 14.70912109 6.37345703 14.70912109 5.54296875 15.87890625 C4.77919922 16.92884766 4.77919922 16.92884766 4 18 C3.01 19.485 3.01 19.485 2 21 C1.34 21 0.68 21 0 21 C-0.33 21.99 -0.66 22.98 -1 24 C-1.66 24 -2.32 24 -3 24 C-3 24.66 -3 25.32 -3 26 C-16.96274325 39.04284487 -37.69250427 40.29822814 -55.78125 40.0078125 C-60.56281381 39.99620676 -65.25402612 40.45846257 -70 41 C-71.11181641 41.10828125 -71.11181641 41.10828125 -72.24609375 41.21875 C-76.40686058 41.65920925 -80.07520941 42.57280342 -84 44 C-85.33178309 44.33947412 -86.66542554 44.67167106 -88 45 C-95.87286473 47.10591032 -102.82638569 49.67036577 -109.85546875 53.828125 C-112 55 -112 55 -114 55 C-114 55.66 -114 56.32 -114 57 C-118.38461538 60 -118.38461538 60 -121 60 C-121.2475 60.5775 -121.495 61.155 -121.75 61.75 C-123.18299988 64.32939979 -124.78424676 66.06121592 -127 68 C-127.66 68 -128.32 68 -129 68 C-129.21398437 68.64453125 -129.42796875 69.2890625 -129.6484375 69.953125 C-131 72 -131 72 -133.6015625 72.609375 C-134.59929687 72.65578125 -135.59703125 72.7021875 -136.625 72.75 C-137.62789062 72.80671875 -138.63078125 72.8634375 -139.6640625 72.921875 C-140.43492187 72.94765625 -141.20578125 72.9734375 -142 73 C-142.66 72.01 -143.32 71.02 -144 70 C-130.40952749 50.18827576 -111.05258952 35.97070346 -87.1875 31.125 C-84.45396573 30.7023723 -81.74460171 30.32109205 -79 30 C-78.20223145 29.90525391 -77.40446289 29.81050781 -76.58251953 29.71289062 C-67.80473339 28.71009965 -59.04625355 28.00183507 -50.21606445 27.71313477 C-35.09809308 27.186188 -21.07121833 24.83648595 -9 15 C-7.96588349 13.3542841 -6.9563874 11.69207001 -6 10 C-5.34 10 -4.68 10 -4 10 C-3.71125 9.278125 -3.4225 8.55625 -3.125 7.8125 C-2.08333333 5.20833333 -1.04166667 2.60416667 0 0 Z " fill="#034D97" transform="translate(388,320)"/>
<path d="M0 0 C13.53352347 7.01488157 25.9657584 11.13406923 41.0859375 6.796875 C44.66622083 5.61334532 47.77849689 4.45024736 50.8359375 2.234375 C53.2734375 0.546875 53.2734375 0.546875 55.31640625 0.65625 C57.2734375 1.546875 57.2734375 1.546875 58.3203125 3.61328125 C58.55234375 4.43699219 58.784375 5.26070313 59.0234375 6.109375 C59.26578125 6.93566406 59.508125 7.76195312 59.7578125 8.61328125 C59.92796875 9.25136719 60.098125 9.88945312 60.2734375 10.546875 C59.2834375 10.876875 58.2934375 11.206875 57.2734375 11.546875 C57.2734375 12.206875 57.2734375 12.866875 57.2734375 13.546875 C38.74189289 21.88925419 38.74189289 21.88925419 31.2734375 19.546875 C31.2734375 20.206875 31.2734375 20.866875 31.2734375 21.546875 C27.70588999 21.62795563 24.70717143 21.45015202 21.2734375 20.546875 C18.8848062 20.10002221 16.49426462 19.66669917 14.1015625 19.2421875 C7.57162947 17.63676198 1.60896504 14.85503458 -4.3515625 11.796875 C-5.74735687 11.08976682 -7.14319101 10.38273717 -8.5390625 9.67578125 C-9.23515625 9.3214502 -9.93125 8.96711914 -10.6484375 8.60205078 C-13.87496835 6.96376761 -17.11340066 5.34951015 -20.3515625 3.734375 C-26.7265625 0.546875 -26.7265625 0.546875 -29.83203125 -1.0546875 C-37.35130693 -4.68748196 -45.53040909 -6.16160992 -53.7265625 -7.453125 C-55.6446875 -7.7625 -55.6446875 -7.7625 -57.6015625 -8.078125 C-68.00410635 -9.1941874 -77.00900815 -8.23002476 -87 -5.42578125 C-90.61093726 -4.48330391 -94.03147684 -3.90665619 -97.7265625 -3.453125 C-97.7265625 -4.113125 -97.7265625 -4.773125 -97.7265625 -5.453125 C-99.180625 -5.824375 -99.180625 -5.824375 -100.6640625 -6.203125 C-101.6746875 -6.615625 -102.6853125 -7.028125 -103.7265625 -7.453125 C-104.41796875 -9.53125 -104.41796875 -9.53125 -104.7265625 -11.453125 C-98.91072614 -14.86433671 -93.1153096 -17.09295107 -86.6015625 -18.703125 C-85.61736328 -18.94724121 -85.61736328 -18.94724121 -84.61328125 -19.19628906 C-54.08390309 -26.37160698 -26.55159211 -13.81190072 0 0 Z " fill="#034B95" transform="translate(391.7265625,411.453125)"/>
<path d="M0 0 C4.81177746 0.06177746 4.81177746 0.06177746 7.1875 2.4375 C11.65330285 16.43034892 9.6000884 31.09756645 3.625 44.1875 C-1.7333485 54.42553559 -9.34956696 63.18911349 -17.66796875 71.1328125 C-21.08799963 74.60732175 -24.03689973 78.44029965 -27.02734375 82.28515625 C-27.94193359 83.31962891 -27.94193359 83.31962891 -28.875 84.375 C-29.535 84.375 -30.195 84.375 -30.875 84.375 C-31.14570313 85.10332031 -31.41640625 85.83164062 -31.6953125 86.58203125 C-32.83944567 89.29082335 -34.170984 91.58761741 -35.75 94.0625 C-43.13077292 106.20852923 -48.3499157 121.04046719 -47.5559082 135.30541992 C-47.05097407 145.99648932 -47.05097407 145.99648932 -49.546875 150.171875 C-52.68829009 152.94640949 -54.62541487 154.375 -58.875 154.375 C-62.79042384 137.14203485 -61.06734066 116.08736157 -52.875 100.375 C-52.29621094 99.22128906 -51.71742188 98.06757813 -51.12109375 96.87890625 C-43.56970217 82.06168787 -33.5159758 70.44618086 -22.12890625 58.4921875 C-9.653903 45.16273197 -3.03647402 32.92179675 -3.59765625 14.58984375 C-3.83395948 10.01286311 -4.66944602 5.79536458 -5.875 1.375 C-4.21469118 -0.28530882 -2.27746403 0.08581749 0 0 Z " fill="#EE901F" transform="translate(243.875,262.625)"/>
<path d="M0 0 C1.45947705 0.06006078 2.91779272 0.1488689 4.375 0.25 C5.59316406 0.31960938 5.59316406 0.31960938 6.8359375 0.390625 C9 1 9 1 10.10229492 2.77490234 C11.0141996 5.03519585 11.34473235 6.79004765 11.52734375 9.2109375 C11.5958252 10.03376221 11.66430664 10.85658691 11.73486328 11.7043457 C11.83516846 13.02631958 11.83516846 13.02631958 11.9375 14.375 C12.89156608 25.64353626 14.38310582 36.80973136 16 48 C16.99 47.34 17.98 46.68 19 46 C19.99 46 20.98 46 22 46 C22.10812012 45.29327148 22.21624023 44.58654297 22.32763672 43.85839844 C23.59348903 35.9005019 25.27148059 28.08976632 27.125 20.25 C27.40214844 19.0640625 27.67929687 17.878125 27.96484375 16.65625 C28.63984867 13.77002206 29.31827914 10.88464761 30 8 C28.35 7.01 26.7 6.02 25 5 C25.33 3.68 25.66 2.36 26 1 C32.93 1 39.86 1 47 1 C46.67 2.32 46.34 3.64 46 5 C45.03449219 5.40863281 44.06898438 5.81726563 43.07421875 6.23828125 C39.6392331 7.77012133 39.6392331 7.77012133 38.64453125 11.66796875 C38.34056758 13.16933455 38.06468949 14.67657523 37.8125 16.1875 C37.65942383 16.9810791 37.50634766 17.7746582 37.34863281 18.59228516 C37.0338325 20.23991465 36.7303882 21.88975197 36.43798828 23.54150391 C36.01732011 25.90277951 35.56079413 28.25376507 35.08984375 30.60546875 C33.53551879 38.24324063 33.53551879 38.24324063 33 46 C33.99 46.66 34.98 47.32 36 48 C36.1875 50.625 36.1875 50.625 36 53 C33.28598706 54.35700647 31.15153684 54.1123861 28.1171875 54.09765625 C26.95058594 54.09443359 25.78398438 54.09121094 24.58203125 54.08789062 C23.35871094 54.07951172 22.13539063 54.07113281 20.875 54.0625 C19.64394531 54.05798828 18.41289063 54.05347656 17.14453125 54.04882812 C14.09630608 54.0370133 11.04817686 54.02054028 8 54 C5.2809795 48.16944948 4.70207273 44.45509089 5 38 C-0.28 38 -5.56 38 -11 38 C-11.66 39.98 -12.32 41.96 -13 44 C-13.80973858 45.62704481 -14.66168481 47.23405666 -15.5625 48.8125 C-15.99691406 49.58207031 -16.43132813 50.35164062 -16.87890625 51.14453125 C-18 53 -18 53 -19 54 C-22.4375 54.25 -22.4375 54.25 -26 54 C-26.66 53.01 -27.32 52.02 -28 51 C-21.40567388 38.76455967 -14.79521548 26.5437298 -7.9453125 14.44921875 C-5.24479854 9.66095805 -2.61293553 4.83649243 0 0 Z M1 15 C-0.98 19.29 -2.96 23.58 -5 28 C-2.03 28 0.94 28 4 28 C3.88652381 26.02013918 3.7589065 24.04108402 3.625 22.0625 C3.55539062 20.96035156 3.48578125 19.85820313 3.4140625 18.72265625 C3.27742187 17.82417969 3.14078125 16.92570313 3 16 C2.34 15.67 1.68 15.34 1 15 Z " fill="#034998" transform="translate(929,604)"/>
<path d="M0 0 C3.02068202 3.18396213 4.67863652 6.06384202 5.3125 10.4375 C4.65764318 14.95601205 2.99959199 17.76716635 -0.25 20.9375 C-2.6875 22.4375 -2.6875 22.4375 -4.6875 22.4375 C-4.6875 23.0975 -4.6875 23.7575 -4.6875 24.4375 C-4.06875 24.685 -3.45 24.9325 -2.8125 25.1875 C-0.19751756 26.72572496 0.37958246 27.56100424 1.3125 30.4375 C1.9528891 36.09427042 0.75388507 39.9732884 -2.6875 44.4375 C-8.21326193 49.96326193 -13.34417308 51.50686409 -20.9296875 51.66796875 C-22.80734215 51.6640241 -24.68500106 51.64950033 -26.5625 51.625 C-27.52414062 51.62435547 -28.48578125 51.62371094 -29.4765625 51.62304688 C-36.54689166 51.57810834 -36.54689166 51.57810834 -37.6875 50.4375 C-37.55035466 43.08802408 -36.09630133 35.98992787 -34.375 28.875 C-33.92520001 26.96367836 -33.47599105 25.05221754 -33.02734375 23.140625 C-32.80288574 22.19251953 -32.57842773 21.24441406 -32.34716797 20.26757812 C-31.70950496 17.53190468 -31.10000734 14.79187747 -30.50390625 12.046875 C-30.3231958 11.21486572 -30.14248535 10.38285645 -29.95629883 9.52563477 C-29.6165902 7.95370302 -29.27910195 6.38128939 -28.9440918 4.80834961 C-27.79738554 -0.45261446 -27.79738554 -0.45261446 -26.6875 -1.5625 C-23.78573676 -1.82926067 -20.9080495 -2.03264693 -18 -2.1875 C-17.19626953 -2.2390625 -16.39253906 -2.290625 -15.56445312 -2.34375 C-9.99348456 -2.65350132 -4.96391301 -2.88599594 0 0 Z M-19.6875 4.4375 C-20.3475 9.0575 -21.0075 13.6775 -21.6875 18.4375 C-13.63955258 18.9854643 -13.63955258 18.9854643 -6.6875 15.4375 C-5.27172523 14.25325674 -5.27172523 14.25325674 -5.625 10.875 C-5.6559375 9.1734375 -5.6559375 9.1734375 -5.6875 7.4375 C-10.69682754 4.43190348 -14.01473489 4.14408112 -19.6875 4.4375 Z M-23.6875 27.4375 C-25.60376837 32.41979776 -26.2422115 37.16434667 -26.6875 42.4375 C-18.07894954 43.15392309 -18.07894954 43.15392309 -10.6875 39.4375 C-8.69341354 36.80893148 -8.67095004 35.64437454 -8.9375 32.3125 C-9.45633165 29.33152202 -9.45633165 29.33152202 -11.6875 27.4375 C-14.58633083 27.19410449 -14.58633083 27.19410449 -17.8125 27.3125 C-19.45605469 27.33957031 -19.45605469 27.33957031 -21.1328125 27.3671875 C-21.97585938 27.39039063 -22.81890625 27.41359375 -23.6875 27.4375 Z " fill="#034998" transform="translate(1483.6875,606.5625)"/>
<path d="M0 0 C2.92417204 3.25836313 3.86238392 6.09720038 4.1875 10.4375 C3.34219455 15.97894686 1.50092202 18.87892683 -2.8125 22.4375 C-3.4725 22.4375 -4.1325 22.4375 -4.8125 22.4375 C-3.6059375 23.736875 -3.6059375 23.736875 -2.375 25.0625 C0.16729464 28.14647674 1.10409501 30.35065547 1.1875 34.4375 C0.47688401 40.83304394 -2.71270033 43.68784822 -7.328125 47.73828125 C-13.44912113 51.92481162 -19.47542348 51.7174724 -26.625 51.625 C-27.59115234 51.62435547 -28.55730469 51.62371094 -29.55273438 51.62304688 C-36.67197998 51.57802002 -36.67197998 51.57802002 -37.8125 50.4375 C-37.90218527 39.83670062 -35.27072467 29.66575008 -32.8125 19.4375 C-32.35354273 17.49754334 -31.89523188 15.55743366 -31.4375 13.6171875 C-30.24024611 8.5546104 -29.03065196 3.49508647 -27.8125 -1.5625 C-24.95869655 -1.75879336 -22.10482606 -1.94476546 -19.25 -2.125 C-18.05020508 -2.20911133 -18.05020508 -2.20911133 -16.82617188 -2.29492188 C-10.92719458 -2.65608375 -5.30932165 -2.94962314 0 0 Z M-19.8125 4.4375 C-20.15070166 6.0198006 -20.48285939 7.60339375 -20.8125 9.1875 C-20.998125 10.06921875 -21.18375 10.9509375 -21.375 11.859375 C-21.92403675 14.65893965 -21.92403675 14.65893965 -21.8125 18.4375 C-20.22955218 18.49187607 -18.64605744 18.53046271 -17.0625 18.5625 C-16.18078125 18.58570313 -15.2990625 18.60890625 -14.390625 18.6328125 C-11.63259905 18.42387114 -10.11346477 17.94813339 -7.8125 16.4375 C-5.65422838 13.20009258 -5.07929669 12.19516697 -5.8125 8.4375 C-9.149195 5.35105713 -11.71951698 4.19545015 -16.1875 4.1875 C-17.981875 4.31125 -17.981875 4.31125 -19.8125 4.4375 Z M-20.5 26.875 C-21.923125 27.060625 -23.34625 27.24625 -24.8125 27.4375 C-25.8025 32.3875 -26.7925 37.3375 -27.8125 42.4375 C-18.84810691 42.94897583 -18.84810691 42.94897583 -10.8125 39.4375 C-9.28758002 36.38766004 -9.57687452 33.7951631 -9.8125 30.4375 C-12.59518452 26.46223641 -15.96940408 26.28405271 -20.5 26.875 Z " fill="#034997" transform="translate(1138.8125,606.5625)"/>
<path d="M0 0 C0.495 1.485 0.495 1.485 1 3 C-0.4375 5.6875 -0.4375 5.6875 -2 8 C-2.61746094 7.84402344 -3.23492188 7.68804688 -3.87109375 7.52734375 C-11.22631351 5.83687467 -17.83508496 5.22224812 -24.8125 8.5625 C-29.30154433 11.40590859 -31.03171927 15.94668811 -32.5859375 20.84765625 C-33.14021464 23.72885159 -33.20931141 26.50453059 -33.25 29.4375 C-33.27578125 30.54996094 -33.3015625 31.66242187 -33.328125 32.80859375 C-32.96503509 36.34007533 -32.11086914 38.1769687 -30 41 C-27.23547967 42.38226016 -24.9538637 42.09525387 -21.875 42.0625 C-20.77929688 42.05347656 -19.68359375 42.04445313 -18.5546875 42.03515625 C-17.71164062 42.02355469 -16.86859375 42.01195312 -16 42 C-15.01 38.37 -14.02 34.74 -13 31 C-14.11375 31.020625 -15.2275 31.04125 -16.375 31.0625 C-20 31 -20 31 -22 30 C-22.125 27.125 -22.125 27.125 -22 24 C-20 22 -20 22 -16.0859375 21.8046875 C-14.51550649 21.81799624 -12.94513779 21.84186398 -11.375 21.875 C-10.57320312 21.88402344 -9.77140625 21.89304687 -8.9453125 21.90234375 C-6.96341477 21.92593777 -4.98167019 21.96180935 -3 22 C-1.57040235 27.65406818 -2.84259004 32.06351316 -4.1875 37.625 C-4.39697266 38.57890625 -4.60644531 39.5328125 -4.82226562 40.515625 C-5.14807617 41.88847656 -5.14807617 41.88847656 -5.48046875 43.2890625 C-5.67535889 44.12131348 -5.87024902 44.95356445 -6.07104492 45.81103516 C-7.22773346 48.53662502 -8.49052461 49.47926553 -11 51 C-14.64043263 52.21347754 -18.02055186 52.2224972 -21.8125 52.25 C-22.51181641 52.270625 -23.21113281 52.29125 -23.93164062 52.3125 C-29.78240921 52.35628498 -33.68742035 51.06984706 -38.046875 47.16796875 C-38.60890625 46.51441406 -39.1709375 45.86085938 -39.75 45.1875 C-40.32234375 44.54167969 -40.8946875 43.89585937 -41.484375 43.23046875 C-46.17490692 36.32764986 -45.50206395 28.8737223 -44 21 C-40.67440901 10.72450543 -34.96253535 3.77221624 -25.9375 -1.9375 C-18.15740302 -4.83033052 -7.03285161 -4.52111889 0 0 Z " fill="#02499C" transform="translate(829,606)"/>
<path d="M0 0 C2.1640625 -0.29296875 2.1640625 -0.29296875 4.625 -0.1875 C5.44226562 -0.16042969 6.25953125 -0.13335938 7.1015625 -0.10546875 C8.04128906 -0.05326172 8.04128906 -0.05326172 9 0 C8.52450066 2.62571335 8.04477433 5.2505304 7.5625 7.875 C7.42779297 8.62136719 7.29308594 9.36773438 7.15429688 10.13671875 C6.11328125 15.7734375 6.11328125 15.7734375 5 18 C5.61875 17.505 6.2375 17.01 6.875 16.5 C11.27438491 14.38829524 15.2020639 14.15562638 20 15 C23.87937219 17.82870889 25.49887808 20.52274072 27 25 C28.08301199 33.903366 26.6869644 41.64632567 21.57421875 49.0703125 C18.24694987 53.17996243 15.09531729 56.5900242 9.640625 57.3125 C5.16563897 57.52433366 2.72044481 57.46108468 -1.125 55 C-1.74375 54.34 -2.3625 53.68 -3 53 C-3.33 53.99 -3.66 54.98 -4 56 C-7.465 56.495 -7.465 56.495 -11 57 C-12.36983346 52.41192348 -11.510866 48.62472709 -10.41796875 44.09375 C-10.24372879 43.33259888 -10.06948883 42.57144775 -9.88996887 41.78723145 C-9.33201967 39.35583092 -8.76067579 36.927852 -8.1875 34.5 C-7.44563088 31.32432466 -6.71051225 28.14716395 -5.98046875 24.96875 C-5.80264862 24.19990479 -5.62482849 23.43105957 -5.44161987 22.63891602 C-4.14956026 16.94633706 -3.204484 11.28204554 -2.4855957 5.48632812 C-2 3 -2 3 0 0 Z M9 23 C9 23.66 9 24.32 9 25 C8.01 25.33 7.02 25.66 6 26 C6 26.66 6 27.32 6 28 C5.34 28 4.68 28 4 28 C0.8479727 33.91005119 0.18200951 39.32859703 1 46 C1.66 46.99 2.32 47.98 3 49 C5.8715965 49.66790364 5.8715965 49.66790364 9 49 C13.52380308 45.63344887 15.87858957 41.47355092 17 36 C17.2266089 31.9850814 17.18071465 28.01588115 17 24 C14.29120665 22.64560332 11.99066732 22.93498549 9 23 Z " fill="#034A95" transform="translate(1365,601)"/>
<path d="M0 0 C1.18594057 4.23325806 0.71869389 7.10395424 -0.4375 11.3125 C-0.86869141 12.91544922 -0.86869141 12.91544922 -1.30859375 14.55078125 C-1.53675781 15.35902344 -1.76492188 16.16726563 -2 17 C-1.278125 16.67902344 -0.55625 16.35804688 0.1875 16.02734375 C4.49188662 14.45504697 8.48161485 14.28774224 13 15 C16.60692909 17.42915632 17.75113889 18.89256807 18.703125 23.12890625 C19.04759767 27.62064863 18.51574616 31.47331733 17.6875 35.875 C17.47383789 37.06428101 17.47383789 37.06428101 17.25585938 38.27758789 C16.84816674 40.52058916 16.42488869 42.76020695 16 45 C15.82082031 46.01191406 15.64164063 47.02382813 15.45703125 48.06640625 C14.70526588 51.96659068 14.15398059 54.50246992 11 57 C7.875 57.25 7.875 57.25 5 57 C4.505 56.505 4.505 56.505 4 56 C4.19027796 48.14051876 6.04644095 40.44280042 7.71484375 32.796875 C7.89402344 31.94609375 8.07320312 31.0953125 8.2578125 30.21875 C8.4242627 29.45498047 8.59071289 28.69121094 8.76220703 27.90429688 C9.18921858 25.91627453 9.18921858 25.91627453 8 24 C3.0766952 24.37631834 3.0766952 24.37631834 -1.25 26.5625 C-5.8849218 33.01828394 -7.0277024 41.18023294 -8.54882812 48.81640625 C-9.79578373 54.79578373 -9.79578373 54.79578373 -12 57 C-15.125 57.125 -15.125 57.125 -18 57 C-19.38492853 54.73468939 -20.04319992 53.46297275 -19.79296875 50.78125 C-19.59316406 50.0284375 -19.39335938 49.275625 -19.1875 48.5 C-18.99542969 47.7471875 -18.80335937 46.994375 -18.60546875 46.21875 C-18.40566406 45.4865625 -18.20585938 44.754375 -18 44 C-17.19114645 40.89652347 -16.53551393 37.77901175 -15.9140625 34.6328125 C-15.70692627 33.58802734 -15.49979004 32.54324219 -15.28637695 31.46679688 C-14.95899536 29.81260742 -14.95899536 29.81260742 -14.625 28.125 C-14.17364596 25.86709372 -13.7218257 23.60928059 -13.26953125 21.3515625 C-12.53028953 17.66026401 -11.79754343 13.96788178 -11.07421875 10.2734375 C-10.82285156 9.02820313 -10.57148437 7.78296875 -10.3125 6.5 C-10.10238281 5.4378125 -9.89226562 4.375625 -9.67578125 3.28125 C-9.45277344 2.5284375 -9.22976563 1.775625 -9 1 C-6.04335481 -0.4783226 -3.25770263 -0.06032783 0 0 Z " fill="#034894" transform="translate(1162,601)"/>
<path d="M0 0 C2.05078125 0.03255208 4.1015625 0.06510417 6.15234375 0.09765625 C7.43418884 2.66134643 6.95867832 3.60365126 6.27734375 6.34765625 C5.42374306 9.91778346 4.71089666 13.46706237 4.15234375 17.09765625 C4.71050781 16.77539062 5.26867188 16.453125 5.84375 16.12109375 C9.82694892 14.35527629 13.88286185 14.51733832 18.15234375 15.09765625 C21.0865757 16.89412479 22.6243973 18.04176335 24.15234375 21.09765625 C24.87062957 28.8032562 23.41237021 36.10225406 21.77734375 43.59765625 C21.555625 44.68046875 21.33390625 45.76328125 21.10546875 46.87890625 C19.41474454 54.83525546 19.41474454 54.83525546 17.15234375 57.09765625 C14.02734375 57.22265625 14.02734375 57.22265625 11.15234375 57.09765625 C9.65264728 54.72019014 9.11789922 53.46450862 9.38427734 50.62744141 C9.60422363 49.72300293 9.82416992 48.81856445 10.05078125 47.88671875 C10.2828125 46.88898437 10.51484375 45.89125 10.75390625 44.86328125 C11.13675781 43.30867187 11.13675781 43.30867187 11.52734375 41.72265625 C13.76913047 33.02094124 13.76913047 33.02094124 14.15234375 24.09765625 C10.73730253 23.779978 8.62027183 23.86369221 5.52734375 25.41015625 C-0.58798716 32.33013597 -1.62639287 42.27450451 -3.13671875 51.10546875 C-3.37132812 52.09289062 -3.6059375 53.0803125 -3.84765625 54.09765625 C-4.83765625 54.59265625 -4.83765625 54.59265625 -5.84765625 55.09765625 C-5.84765625 55.75765625 -5.84765625 56.41765625 -5.84765625 57.09765625 C-8.15765625 57.09765625 -10.46765625 57.09765625 -12.84765625 57.09765625 C-13.82081999 52.63036731 -13.74790066 49.36111408 -12.73828125 44.9140625 C-12.47950195 43.74576904 -12.22072266 42.57747559 -11.95410156 41.3737793 C-11.67147461 40.14828369 -11.38884766 38.92278809 -11.09765625 37.66015625 C-10.53437435 35.13689317 -9.9718674 32.61345696 -9.41015625 30.08984375 C-9.13816406 28.88166992 -8.86617187 27.67349609 -8.5859375 26.42871094 C-7.45580136 21.32964429 -6.46321501 16.20902638 -5.48828125 11.078125 C-3.14284205 0.16611216 -3.14284205 0.16611216 0 0 Z " fill="#034997" transform="translate(1501.84765625,600.90234375)"/>
<path d="M0 0 C0.66 -0.99 1.32 -1.98 2 -3 C5.125 -3.1875 5.125 -3.1875 8 -3 C9.32180618 1.33188945 8.35872112 4.82621613 7.3125 9.125 C6.93565349 10.73164323 6.55936865 12.33841829 6.18359375 13.9453125 C5.98749512 14.77321289 5.79139648 15.60111328 5.58935547 16.45410156 C4.99933855 19.00285731 4.44838768 21.55703109 3.91015625 24.1171875 C3.73637451 24.93558105 3.56259277 25.75397461 3.38354492 26.59716797 C3.04941604 28.17589884 2.72000367 29.7556367 2.39575195 31.33642578 C1.2239883 36.7760117 1.2239883 36.7760117 -1 39 C-3.4375 39.3125 -3.4375 39.3125 -6 39 C-7.8125 37.5 -7.8125 37.5 -9 36 C-9.639375 36.495 -10.27875 36.99 -10.9375 37.5 C-15.06034293 39.51935164 -18.48620581 39.71400017 -23 39 C-27.27760266 36.76820731 -29.10738831 33.80174402 -30.55859375 29.33203125 C-32.20455113 20.63613253 -29.54627209 11.47535169 -24.80078125 4.1484375 C-21.53809296 -0.03027368 -18.19104256 -2.38079232 -13.125 -3.8125 C-8.04042753 -4.11757435 -4.20378743 -2.80252496 0 0 Z M-17 10 C-20.45331142 15.91996243 -21.50678352 21.15842242 -21 28 C-20.03882095 30.12870693 -20.03882095 30.12870693 -18 31 C-15.02878466 31.22873769 -15.02878466 31.22873769 -12 30 C-6.89463704 25.01336641 -3.89551325 19.50681208 -3.625 12.25 C-3.59646012 9.52919783 -3.66903023 8.41747323 -5.375 6.265625 C-6.98321318 4.82216292 -6.98321318 4.82216292 -9.375 4.5 C-13.19521875 5.22766071 -14.55386804 7.03889289 -17 10 Z " fill="#024894" transform="translate(1561,619)"/>
<path d="M0 0 C0.515625 0.45375 1.03125 0.9075 1.5625 1.375 C2.2225 0.055 2.8825 -1.265 3.5625 -2.625 C5.2125 -2.625 6.8625 -2.625 8.5625 -2.625 C10.07986769 2.26973447 8.99040923 6.27833381 7.875 11.125 C7.69219482 11.95177246 7.50938965 12.77854492 7.32104492 13.63037109 C6.74572839 16.21449914 6.15515659 18.79479936 5.5625 21.375 C5.18743113 23.03904698 4.81242922 24.70310905 4.4375 26.3671875 C4.08453823 27.91173417 3.73042171 29.45601754 3.375 31 C3.20846924 31.72799805 3.04193848 32.45599609 2.87036133 33.20605469 C1.68097415 38.25652585 1.68097415 38.25652585 0.5625 39.375 C-2.9375 39.0625 -2.9375 39.0625 -6.4375 38.375 C-6.7675 37.715 -7.0975 37.055 -7.4375 36.375 C-8.076875 36.87 -8.71625 37.365 -9.375 37.875 C-13.50512454 39.89791814 -16.91816356 40.21044071 -21.4375 39.375 C-25.1561022 37.60236124 -27.09515498 35.08945917 -28.875 31.375 C-30.48721817 23.77929172 -29.63037161 14.86577061 -25.65625 8.15234375 C-25.2540625 7.56582031 -24.851875 6.97929688 -24.4375 6.375 C-23.80328125 5.41787109 -23.80328125 5.41787109 -23.15625 4.44140625 C-19.97848183 0.19555489 -16.80074448 -1.91894554 -11.6796875 -3.32421875 C-7.11756803 -3.93621039 -3.73227325 -2.48818217 0 0 Z M-16.1796875 10.4609375 C-19.94921281 16.19717167 -20.18171148 22.67709668 -19.4375 29.375 C-17.62332291 31.56473497 -17.62332291 31.56473497 -15.125 31.8125 C-11.28456659 31.18731317 -9.93811699 29.27045125 -7.4375 26.375 C-6.880625 25.776875 -6.32375 25.17875 -5.75 24.5625 C-2.45808031 19.07596718 -1.94761922 13.5828366 -3.4375 7.375 C-5.30645888 5.13866676 -5.30645888 5.13866676 -8.1875 4.8125 C-12.40003583 5.54159274 -13.65414682 7.14203326 -16.1796875 10.4609375 Z " fill="#034893" transform="translate(1214.4375,618.625)"/>
<path d="M0 0 C0.66 -0.99 1.32 -1.98 2 -3 C5.0625 -3.25 5.0625 -3.25 8 -3 C8.495 -2.505 8.495 -2.505 9 -2 C8.8496724 3.18052033 7.79142383 8.2476053 6.6015625 13.2734375 C5.65347878 17.5705962 4.89881381 21.90612221 4.14111328 26.24047852 C2.23853223 36.76146777 2.23853223 36.76146777 0 39 C-1.99958364 39.04080783 -4.00045254 39.04254356 -6 39 C-6.33 37.68 -6.66 36.36 -7 35 C-7.804375 35.66 -8.60875 36.32 -9.4375 37 C-13.43812624 39.65444395 -17.33798425 39.86875201 -22 39 C-25.33600367 36.94161475 -26.8262176 35.2606736 -29 32 C-29.83898441 22.85897222 -30.28978758 12.91245537 -25 5 C-17.86253331 -3.2676946 -9.72081323 -6.48054215 0 0 Z M-16 8 C-19.84035455 14.50865285 -21.11650866 21.52198854 -20 29 C-18.08775687 31.36518182 -18.08775687 31.36518182 -14.75 31.125 C-9.49575223 29.54872567 -7.57093023 26.7161013 -5 22 C-2.90524361 16.92646158 -2.71730044 12.3445815 -4 7 C-5.80784958 4.78812161 -5.80784958 4.78812161 -8.3125 4.6875 C-11.84853995 5.09866744 -13.28458274 5.63271316 -16 8 Z " fill="#034993" transform="translate(1628,619)"/>
<path d="M0 0 C2.296875 1.53125 2.296875 1.53125 4 3 C4.37125 2.505 4.7425 2.01 5.125 1.5 C7.74694393 -0.59755514 9.73842472 -0.21743835 13 0 C14.20011166 3.60033499 13.70598447 5.17950866 12.85546875 8.84765625 C12.59056641 10.01103516 12.32566406 11.17441406 12.05273438 12.37304688 C11.76720703 13.59056641 11.48167969 14.80808594 11.1875 16.0625 C10.6383601 18.44899741 10.09016792 20.83571311 9.54296875 23.22265625 C9.27661621 24.37008301 9.01026367 25.51750977 8.73583984 26.69970703 C7.89180404 30.4852664 7.17645248 34.28482707 6.52075195 38.10717773 C6 40 6 40 4 42 C1.375 42.125 1.375 42.125 -1 42 C-1.66 40.68 -2.32 39.36 -3 38 C-3.825 38.66 -4.65 39.32 -5.5 40 C-8.55261088 41.99676664 -11.24954947 42.70615147 -14.96875 42.52734375 C-18.77765292 41.53849395 -21.51032052 38.96596598 -24 36 C-26.64468331 28.06595008 -25.34115293 19.5067462 -22 12 C-21.73316406 11.36191406 -21.46632813 10.72382812 -21.19140625 10.06640625 C-17.09616333 1.60290422 -9.06787408 -1.85058655 0 0 Z M-12 12 C-15.20496236 18.29546177 -16.5228905 23.94097823 -16 31 C-15.03882095 33.12870693 -15.03882095 33.12870693 -13 34 C-9.75556396 34.14419716 -7.83425434 33.71986485 -5.34765625 31.57421875 C-0.15606914 25.84951022 1.21306454 20.65890823 1.265625 13.05078125 C1.1139892 10.69082073 1.1139892 10.69082073 -1 8 C-6.05587914 7.21352991 -8.51866209 8.33048166 -12 12 Z " fill="#034B96" transform="translate(1278,616)"/>
<path d="M0 0 C2.70552388 2.19823815 4.44778333 3.89556667 6 7 C6.54819986 14.43606578 4.83422899 21.2309136 3.125 28.4375 C2.85558594 29.63310547 2.58617187 30.82871094 2.30859375 32.06054688 C0.77878356 38.62380572 0.77878356 38.62380572 0 41 C-2.95664519 42.4783226 -5.74229737 42.06032783 -9 42 C-11.63989204 33.98604202 -7.5384661 23.69994228 -5.5859375 15.8125 C-4.8640305 12.82616087 -4.8640305 12.82616087 -5 9 C-11.0969144 9.09881201 -11.0969144 9.09881201 -15.8125 12.75 C-19.51544667 18.80145982 -20.2821317 26.12755549 -21.5546875 32.9921875 C-21.72226562 33.88164063 -21.88984375 34.77109375 -22.0625 35.6875 C-22.19785156 36.47511719 -22.33320312 37.26273438 -22.47265625 38.07421875 C-23 40 -23 40 -25 42 C-28.625 42.125 -28.625 42.125 -32 42 C-33.81525378 39.3262688 -34.02315133 38.16821883 -33.57421875 34.90625 C-33.28160156 33.7821875 -32.98898437 32.658125 -32.6875 31.5 C-32.40261719 30.3759375 -32.11773438 29.251875 -31.82421875 28.09375 C-31.55222656 27.0728125 -31.28023437 26.051875 -31 25 C-30.29959036 22.27054369 -29.67550098 19.53525322 -29.09765625 16.77734375 C-28.92943359 15.99166016 -28.76121094 15.20597656 -28.58789062 14.39648438 C-28.23700123 12.75421767 -27.89066071 11.11097259 -27.54882812 9.46679688 C-27.29456055 8.29020508 -27.29456055 8.29020508 -27.03515625 7.08984375 C-26.8844165 6.37691162 -26.73367676 5.66397949 -26.57836914 4.92944336 C-26 3 -26 3 -24 0 C-21 -0.375 -21 -0.375 -18 0 C-17.34 0.99 -16.68 1.98 -16 3 C-15.030625 2.319375 -14.06125 1.63875 -13.0625 0.9375 C-8.64039884 -1.57403818 -4.79828759 -1.58145808 0 0 Z " fill="#024794" transform="translate(899,616)"/>
<path d="M0 0 C3 0.25 3 0.25 5 2.25 C5.44239368 4.58919271 5.78090882 6.94855391 6.0625 9.3125 C6.21847656 10.58222656 6.37445312 11.85195313 6.53515625 13.16015625 C7.03706359 17.52189293 7.52013228 21.88578911 8 26.25 C8.41511841 25.49493164 8.41511841 25.49493164 8.83862305 24.72460938 C10.11924101 22.39844214 11.40335055 20.07421943 12.6875 17.75 C13.12255859 16.95851563 13.55761719 16.16703125 14.00585938 15.3515625 C15.32089778 12.97475235 16.6562642 10.61068999 18 8.25 C18.43352783 7.47076172 18.86705566 6.69152344 19.3137207 5.88867188 C19.73613037 5.16228516 20.15854004 4.43589844 20.59375 3.6875 C20.96564453 3.03652344 21.33753906 2.38554688 21.72070312 1.71484375 C23 0.25 23 0.25 26.8125 -0.25 C28.3903125 -0.0025 28.3903125 -0.0025 30 0.25 C30.73046875 1.7890625 30.73046875 1.7890625 31 4.25 C29.87516333 6.83924666 28.6955395 9.17839087 27.3125 11.625 C26.71151489 12.72146851 26.71151489 12.72146851 26.09838867 13.84008789 C25.21756461 15.44537177 24.33164427 17.04786684 23.44140625 18.64794922 C21.9212681 21.39212815 20.42699958 24.14923558 18.9375 26.91015625 C10.86670982 41.83804624 10.86670982 41.83804624 6.8515625 48.71875 C6.15474365 49.91467773 6.15474365 49.91467773 5.44384766 51.13476562 C2.30398602 55.73465762 -1.31222615 57.81350676 -6.625 59.1875 C-10.03286165 59.25060855 -11.99681923 58.79709313 -15 57.25 C-15 54.94 -15 52.63 -15 50.25 C-13.783125 50.353125 -12.56625 50.45625 -11.3125 50.5625 C-7.68320669 50.57534706 -7.13901057 50.36181285 -4.125 47.9375 C0.28347611 42.36207433 0.07895002 39.82536538 -0.56884766 32.93115234 C-1.41411522 25.71430959 -2.60284427 18.55372991 -3.80273438 11.38867188 C-3.98513672 10.23560547 -4.16753906 9.08253906 -4.35546875 7.89453125 C-4.52715576 6.85659424 -4.69884277 5.81865723 -4.87573242 4.74926758 C-4.91674072 3.92450928 -4.95774902 3.09975098 -5 2.25 C-3 0.25 -3 0.25 0 0 Z " fill="#024B95" transform="translate(1399,615.75)"/>
<path d="M0 0 C1.0725 -0.01417969 2.145 -0.02835938 3.25 -0.04296875 C6 0.1875 6 0.1875 8 2.1875 C7.875 4.6875 7.875 4.6875 7 7.1875 C5.3125 8.5625 5.3125 8.5625 3 9.1875 C-0.25 8.8125 -0.25 8.8125 -3 8.1875 C-3.66 10.8275 -4.32 13.4675 -5 16.1875 C-4.21625 16.125625 -3.4325 16.06375 -2.625 16 C-1.75875 16.061875 -0.8925 16.12375 0 16.1875 C0.66 17.1775 1.32 18.1675 2 19.1875 C1.125 21.875 1.125 21.875 0 24.1875 C-2.64 24.1875 -5.28 24.1875 -8 24.1875 C-8.11730469 25.40566406 -8.23460937 26.62382813 -8.35546875 27.87890625 C-9.0409373 34.01691097 -10.16361823 40.05932332 -11.3125 46.125 C-11.51294922 47.24068359 -11.71339844 48.35636719 -11.91992188 49.50585938 C-15.57768808 68.83653094 -15.57768808 68.83653094 -23 74.1875 C-27.69671265 75.44554803 -30.66643232 75.41994396 -35 73.1875 C-35 71.2075 -35 69.2275 -35 67.1875 C-31 66.1875 -31 66.1875 -28.95849609 65.88574219 C-26.88493768 65.38082154 -26.88493768 65.38082154 -26.04541016 63.58691406 C-24.03277411 56.78473345 -22.65037704 49.91271025 -21.375 42.9375 C-21.05015625 41.20113281 -21.05015625 41.20113281 -20.71875 39.4296875 C-20.31786409 37.28668009 -19.9195895 35.14318116 -19.52490234 32.99902344 C-19.03790057 30.39050602 -18.52669829 27.78825876 -18 25.1875 C-20.475 24.1975 -20.475 24.1975 -23 23.1875 C-22.67 21.5375 -22.34 19.8875 -22 18.1875 C-21.071875 18.043125 -20.14375 17.89875 -19.1875 17.75 C-15.93081987 16.56884688 -15.93081987 16.56884688 -15.109375 14.26171875 C-14.65315902 12.68352975 -14.21090362 11.10125147 -13.78125 9.515625 C-11.42646108 2.49835402 -7.08693663 0.04258976 0 0 Z " fill="#024896" transform="translate(1014,599.8125)"/>
<path d="M0 0 C4.65229014 4.30336838 6.25584336 8.26054205 6.75 14.4375 C6.23428885 22.43102281 3.89709666 30.05425902 -1.984375 35.75 C-6.88938424 40.02367142 -10.69916836 40.67233622 -16.99609375 40.58984375 C-20.73996028 40.17515651 -22.73327627 38.81572623 -25.5 36.3125 C-29.4097286 31.13475132 -31.31112771 26.81294602 -30.5 20.3125 C-28.36500121 11.32110511 -25.36255312 4.81806155 -17.8125 -0.625 C-11.67668706 -2.59309094 -5.85181897 -2.82141272 0 0 Z M-18.5 11.3125 C-20.95272108 16.88686608 -21.44696514 23.29878325 -20.5 29.3125 C-18.53408798 31.79231735 -18.53408798 31.79231735 -15.5 32.3125 C-11.30360915 32.39992481 -9.87084044 31.64962767 -6.75 28.8125 C-3.05980933 23.84859836 -2.33300622 18.41662166 -2.8125 12.375 C-3.3476844 9.41676476 -3.3476844 9.41676476 -4.5 7.3125 C-11.01544935 5.65602983 -13.83616845 5.9824068 -18.5 11.3125 Z " fill="#034B95" transform="translate(1043.5,617.6875)"/>
<path d="M0 0 C2.26126285 2.44062647 3.33039367 4.47954751 3.94140625 7.73828125 C2.98673407 12.82986623 0.58778654 15.74919738 -3.37109375 18.98828125 C-8.9866407 22.0120373 -14.23317487 23.05767719 -20.62109375 22.73828125 C-19.10244161 27.03716738 -19.10244161 27.03716738 -16.62109375 30.73828125 C-11.44662505 31.04874937 -7.47378441 30.3228333 -2.62109375 28.73828125 C-1.62109375 29.73828125 -1.62109375 29.73828125 -1.55859375 33.30078125 C-1.57921875 34.43515625 -1.59984375 35.56953125 -1.62109375 36.73828125 C-7.43411671 40.72435414 -13.77816862 40.5218223 -20.62109375 39.73828125 C-25.13597978 37.63652396 -27.71601137 35.35058595 -29.62109375 30.73828125 C-31.75045735 21.4780256 -29.76666167 13.83533256 -24.80859375 5.86328125 C-21.52236696 1.27067788 -18.21727814 -1.47157567 -12.74609375 -3.13671875 C-8.06470077 -3.32397447 -3.80186735 -2.95904375 0 0 Z M-15.43359375 8.05078125 C-17.77116938 10.59913749 -17.77116938 10.59913749 -18.62109375 13.73828125 C-15.41389651 15.14944803 -14.33719323 14.63242004 -10.93359375 13.36328125 C-7.84430841 12.06929774 -7.84430841 12.06929774 -6.62109375 10.73828125 C-6.58045543 9.0721101 -6.57837275 7.4044003 -6.62109375 5.73828125 C-10.74250984 5.25904682 -12.15885221 5.35821599 -15.43359375 8.05078125 Z " fill="#024897" transform="translate(861.62109375,618.26171875)"/>
<path d="M0 0 C3.125 -0.1875 3.125 -0.1875 6 0 C5.67 2.64 5.34 5.28 5 8 C7.64 8 10.28 8 13 8 C13.625 10.875 13.625 10.875 14 14 C12 16 12 16 9.8359375 16.1953125 C9.02382812 16.17210937 8.21171875 16.14890625 7.375 16.125 C6.55773438 16.10695313 5.74046875 16.08890625 4.8984375 16.0703125 C4.27195312 16.04710937 3.64546875 16.02390625 3 16 C2.8453125 17.7015625 2.8453125 17.7015625 2.6875 19.4375 C1.85901919 27.01566272 0.36825868 34.50469614 -1 42 C0.134375 41.814375 1.26875 41.62875 2.4375 41.4375 C3.613125 41.293125 4.78875 41.14875 6 41 C7 42 7 42 7.1875 44.9375 C7 48 7 48 5 50 C0.25113419 50.72283621 -3.79842545 50.63757017 -8.0625 48.375 C-11.26136145 44.45381499 -11.16379569 40.84860602 -10.75 36 C-9.92563737 29.59195448 -8.42402464 23.29615924 -7 17 C-8.32 16.67 -9.64 16.34 -11 16 C-11 14.02 -11 12.04 -11 10 C-9.88625 9.773125 -8.7725 9.54625 -7.625 9.3125 C-3.87079292 8.40866586 -3.87079292 8.40866586 -2.6875 5.5625 C-2.460625 4.716875 -2.23375 3.87125 -2 3 C-1.34 2.01 -0.68 1.02 0 0 Z " fill="#024698" transform="translate(1305,608)"/>
<path d="M0 0 C0.94875 0.04125 1.8975 0.0825 2.875 0.125 C2.545 2.765 2.215 5.405 1.875 8.125 C4.185 8.125 6.495 8.125 8.875 8.125 C10 9.875 10 9.875 10.875 12.125 C10.21875 14.21875 10.21875 14.21875 8.875 16.125 C6.7109375 16.734375 6.7109375 16.734375 4.25 16.875 C3.43273438 16.93171875 2.61546875 16.9884375 1.7734375 17.046875 C1.14695312 17.07265625 0.52046875 17.0984375 -0.125 17.125 C-0.24617188 17.8984375 -0.36734375 18.671875 -0.4921875 19.46875 C-2.02877698 29.0192446 -2.02877698 29.0192446 -3.25 33.625 C-4.28669042 37.17047543 -4.28669042 37.17047543 -4.125 41.125 C-3.17625 41.08375 -2.2275 41.0425 -1.25 41 C1.875 41.125 1.875 41.125 3.875 43.125 C4.125 45.625 4.125 45.625 3.875 48.125 C1.30911548 50.69088452 0.13033131 50.4804254 -3.4375 50.5625 C-7.47931903 50.48304091 -8.81862573 50.3333345 -12.25 48 C-15.49028314 43.03156585 -15.27589997 39.17492815 -14.12890625 33.5078125 C-13.65965691 31.41932249 -13.17884432 29.33340256 -12.6875 27.25 C-12.32301758 25.64511719 -12.32301758 25.64511719 -11.95117188 24.0078125 C-11.35236521 21.37775972 -10.74338331 18.75050611 -10.125 16.125 C-11.775 15.795 -13.425 15.465 -15.125 15.125 C-14.795 13.475 -14.465 11.825 -14.125 10.125 C-13.01125 9.91875 -11.8975 9.7125 -10.75 9.5 C-9.55375 9.04625 -8.3575 8.5925 -7.125 8.125 C-5.72880471 5.18701446 -5.72880471 5.18701446 -5.125 2.125 C-3.125 0.125 -3.125 0.125 0 0 Z " fill="#024893" transform="translate(1654.125,607.875)"/>
<path d="M0 0 C-0.66 2.31 -1.32 4.62 -2 7 C-2.67546875 7.08636719 -3.3509375 7.17273438 -4.046875 7.26171875 C-9.79881755 8.1114231 -9.79881755 8.1114231 -14.5 11.3125 C-17.72304368 17.08711992 -18.89633062 22.87336231 -20.125 29.3125 C-20.30675781 30.24384766 -20.48851562 31.17519531 -20.67578125 32.13476562 C-21.12156983 34.42236493 -21.56282947 36.71074091 -22 39 C-22.66 39 -23.32 39 -24 39 C-24 39.66 -24 40.32 -24 41 C-26.875 41.125 -26.875 41.125 -30 41 C-30.66 40.34 -31.32 39.68 -32 39 C-31.59088917 31.79794481 -29.66221807 24.81028127 -28 17.8125 C-27.45774753 15.5066481 -26.91605919 13.20066344 -26.375 10.89453125 C-26.13523437 9.88237549 -25.89546875 8.87021973 -25.6484375 7.82739258 C-25.21969953 5.95795944 -24.82828827 4.0795322 -24.4765625 2.1940918 C-24 0 -24 0 -23 -1 C-20.0625 -1.25 -20.0625 -1.25 -17 -1 C-16.34 -0.01 -15.68 0.98 -15 2 C-14.4225 1.525625 -13.845 1.05125 -13.25 0.5625 C-8.40220792 -2.80402228 -5.53006802 -1.80790685 0 0 Z " fill="#024794" transform="translate(1602,617)"/>
<path d="M0 0 C-0.3125 2.875 -0.3125 2.875 -1 6 C-4 8 -4 8 -7.375 8.25 C-11.15470446 9.03200782 -12.67251103 9.89477745 -14.94140625 13.01171875 C-18.42864668 19.56155409 -19.34852716 27.32968687 -20.375 34.58984375 C-21.0950287 37.36645444 -22.02660715 38.92722765 -24 41 C-27.0625 41.4375 -27.0625 41.4375 -30 41 C-32 38 -32 38 -31.52441406 34.40234375 C-31.20162837 32.91108144 -30.8643772 31.42290425 -30.515625 29.9375 C-30.33997009 29.14980225 -30.16431519 28.36210449 -29.9833374 27.55053711 C-29.60916016 25.88486881 -29.2288064 24.22057782 -28.84277344 22.55761719 C-28.25297543 20.01283797 -27.68354513 17.46414928 -27.1171875 14.9140625 C-26.75119642 13.29660382 -26.3840472 11.67940666 -26.015625 10.0625 C-25.84468323 9.29993896 -25.67374146 8.53737793 -25.49761963 7.75170898 C-24.69916775 4.342276 -23.9633803 1.94507044 -22 -1 C-15.125 -0.125 -15.125 -0.125 -14 1 C-12.80375 0.46375 -11.6075 -0.0725 -10.375 -0.625 C-6.29856914 -2.18448867 -4.01540206 -1.90731598 0 0 Z " fill="#024793" transform="translate(1256,617)"/>
<path d="M0 0 C-0.3125 2.875 -0.3125 2.875 -1 6 C-4 8 -4 8 -7.4375 8.3125 C-11.03875665 8.68556901 -11.03875665 8.68556901 -13.1875 11 C-17.36948892 17.9219127 -19.46462951 24.15571334 -20.5078125 32.203125 C-21.05521116 35.31373961 -21.69554636 38.69554636 -24 41 C-27 41.125 -27 41.125 -30 41 C-30.33 40.67 -30.66 40.34 -31 40 C-30.85241863 31.94819042 -29.20599673 23.99234088 -27.625 16.125 C-27.31175781 14.47371094 -27.31175781 14.47371094 -26.9921875 12.7890625 C-26.78078125 11.726875 -26.569375 10.6646875 -26.3515625 9.5703125 C-26.07046631 8.14356201 -26.07046631 8.14356201 -25.78369141 6.68798828 C-24.9139157 3.70473889 -23.85480965 1.49420578 -22 -1 C-18.8125 -1.3125 -18.8125 -1.3125 -16 -1 C-15.67 -0.34 -15.34 0.32 -15 1 C-14.41992188 0.76023437 -13.83984375 0.52046875 -13.2421875 0.2734375 C-8.1311845 -1.66638212 -5.17093859 -2.51917521 0 0 Z " fill="#024793" transform="translate(1084,617)"/>
<path d="M0 0 C2.97 0 5.94 0 9 0 C10 3 10 3 8.453125 6.25 C7.72926138 7.50611628 6.99439569 8.75594144 6.25 10 C5.70859375 10.94359375 5.70859375 10.94359375 5.15625 11.90625 C1.5783889 18.02491101 1.5783889 18.02491101 -1 20 C-3.6875 20.1875 -3.6875 20.1875 -6 20 C-7.10719511 17.20852626 -7.01233302 16.03830002 -6.07421875 13.125 C-5.61660156 12.09375 -5.15898438 11.0625 -4.6875 10 C-4.23761719 8.96875 -3.78773437 7.9375 -3.32421875 6.875 C-2.25930005 4.56296413 -1.13838146 2.27676291 0 0 Z " fill="#024995" transform="translate(1318,647)"/>
<path d="" fill="#000000" transform="translate(0,0)"/>
<path d="" fill="#000000" transform="translate(0,0)"/>
</svg>
